*
G04 Mass Parameters ***
*
G04 Image ***
*
%IND:\ORCAD TLS METER\MAIN BOARD.DRD*%
%ICAS*%
%MOIN*%
%IPPOS*%
%ASAXBY*%
G74*%FSLAN2X34Y34*%
*
G04 Aperture Definitions ***
*
%ADD10C,0.2000*%
%ADD11C,0.0520*%
%ADD12R,0.0520X0.0520*%
%ADD13C,0.1000*%
%ADD14C,0.0750*%
%ADD15O,0.1250X0.0600*%
%ADD16R,0.1250X0.0600*%
%ADD17O,0.1250X0.2000*%
%ADD18O,0.2000X0.1250*%
%ADD19C,0.0620*%
%ADD20R,0.0620X0.0620*%
%ADD21C,0.0550*%
%ADD22R,0.0550X0.0550*%
%ADD23R,0.0750X0.0750*%
%ADD24C,0.0580*%
%ADD25R,0.0580X0.0580*%
%ADD26O,0.0700X0.2000*%
%ADD27R,0.0700X0.2000*%
%ADD28C,0.0150*%
%ADD29C,0.0300*%
%ADD30C,0.2100*%
%ADD31C,0.1100*%
%ADD32C,0.0850*%
%ADD33O,0.1350X0.0700*%
%ADD34R,0.1350X0.0700*%
%ADD35O,0.1350X0.2100*%
%ADD36O,0.2100X0.1350*%
%ADD37R,0.0850X0.0850*%
%ADD38O,0.0800X0.2100*%
%ADD39R,0.0800X0.2100*%
%ADD40C,0.0670*%
%ADD41R,0.0670X0.0670*%
%ADD42C,0.0080*%
%ADD43C,0.0100*%
%ADD44C,0.0010*%
%ADD45C,0.0200*%
*
G04 Plot Data ***
*
G54D42*
G01X0033071Y0039371D02*
Y0047244D01*
X0000000D01*
Y0000000D01*
X0033071D01*
Y0039371D01*
G54D43*
G01X0024292Y-0023333D02*
X0024125Y-0023167D01*
X0024042Y-0023000D01*
Y-0022667D01*
X0024125Y-0022500D01*
X0024292Y-0022333D01*
X0024458D01*
X0024625Y-0022500D01*
X0024708Y-0022667D01*
Y-0023000D01*
X0024625Y-0023167D01*
X0024458Y-0023333D01*
X0024292D01*
X0023758Y-0023000D02*
X0023092D01*
X0023425Y-0022333D01*
X0023592D01*
Y-0023333D01*
X0022808D02*
X0022475D01*
X0022642D02*
Y-0022333D01*
X0022475Y-0022500D01*
X0012312Y-0023333D02*
X0011729D01*
Y-0022333D01*
X0011446Y-0023000D02*
X0010779D01*
X0011446Y-0023333D02*
Y-0022833D01*
X0011196Y-0022333D01*
X0011029D01*
X0010779Y-0022833D01*
Y-0023333D01*
X0010162D02*
Y-0022333D01*
X0010496D02*
X0009829D01*
X0008962Y-0023333D02*
X0008879Y-0023167D01*
Y-0022500D01*
X0008962Y-0022333D01*
X0009462D01*
X0009546Y-0022500D01*
Y-0023167D01*
X0009462Y-0023333D01*
X0008962D01*
X0008262D02*
Y-0022333D01*
X0008596D02*
X0007929D01*
X0024708Y-0021472D02*
X0024264D01*
X0024708Y-0021028D01*
Y-0020917D01*
X0024653Y-0020806D01*
X0024319D01*
X0024264Y-0020917D01*
X0010814Y-0021472D02*
X0010703Y-0021361D01*
X0010647Y-0021250D01*
Y-0021028D01*
X0010703Y-0020917D01*
X0010814Y-0020806D01*
X0010925D01*
X0011036Y-0020917D01*
X0011092Y-0021028D01*
Y-0021250D01*
X0011036Y-0021361D01*
X0010925Y-0021472D01*
X0010814D01*
X0009947Y-0021361D02*
X0010003Y-0021472D01*
X0010336D01*
X0010392Y-0021361D01*
Y-0021139D01*
X0010281Y-0021028D01*
X0009947D01*
Y-0020806D01*
X0010392D01*
X0009692Y-0021472D02*
X0009469D01*
X0009581D02*
Y-0020806D01*
X0009469Y-0020917D01*
X0008992Y-0021472D02*
X0009103D01*
Y-0021361D01*
X0008992D01*
Y-0021472D01*
X0008347D02*
X0008236Y-0021361D01*
X0008181Y-0021250D01*
Y-0021028D01*
X0008236Y-0020917D01*
X0008347Y-0020806D01*
X0008458D01*
X0008569Y-0020917D01*
X0008625Y-0021028D01*
Y-0021250D01*
X0008569Y-0021361D01*
X0008458Y-0021472D01*
X0008347D01*
X0024264Y-0019861D02*
X0024375Y-0019972D01*
X0024597D01*
X0024708Y-0019861D01*
Y-0019750D01*
X0024486Y-0019528D01*
X0024708Y-0019306D01*
X0024264D01*
X0010647Y-0019861D02*
X0010703Y-0019972D01*
X0011036D01*
X0011092Y-0019861D01*
Y-0019639D01*
X0010981Y-0019528D01*
X0010647D01*
Y-0019306D01*
X0011092D01*
X0010003Y-0019639D02*
X0010336D01*
X0010392Y-0019750D01*
Y-0019861D01*
X0010336Y-0019972D01*
X0010003D01*
X0009947Y-0019861D01*
Y-0019750D01*
X0010169Y-0019306D01*
X0009414Y-0019972D02*
X0009303Y-0019861D01*
X0009247Y-0019750D01*
Y-0019528D01*
X0009303Y-0019417D01*
X0009414Y-0019306D01*
X0009525D01*
X0009636Y-0019417D01*
X0009692Y-0019528D01*
Y-0019750D01*
X0009636Y-0019861D01*
X0009525Y-0019972D01*
X0009414D01*
X0008881D02*
X0008992D01*
Y-0019861D01*
X0008881D01*
Y-0019972D01*
X0008236D02*
X0008125Y-0019861D01*
X0008069Y-0019750D01*
Y-0019528D01*
X0008125Y-0019417D01*
X0008236Y-0019306D01*
X0008347D01*
X0008458Y-0019417D01*
X0008514Y-0019528D01*
Y-0019750D01*
X0008458Y-0019861D01*
X0008347Y-0019972D01*
X0008236D01*
X0024264Y-0018361D02*
X0024375Y-0018472D01*
X0024597D01*
X0024708Y-0018361D01*
Y-0018250D01*
X0024486Y-0018028D01*
X0024708Y-0017806D01*
X0024264D01*
X0010647Y-0018361D02*
X0010703Y-0018472D01*
X0011036D01*
X0011092Y-0018361D01*
Y-0018139D01*
X0010981Y-0018028D01*
X0010647D01*
Y-0017806D01*
X0011092D01*
X0009947Y-0018361D02*
X0010003Y-0018472D01*
X0010336D01*
X0010392Y-0018361D01*
Y-0018139D01*
X0010281Y-0018028D01*
X0009947D01*
Y-0017806D01*
X0010392D01*
X0009414Y-0018472D02*
X0009303Y-0018361D01*
X0009247Y-0018250D01*
Y-0018028D01*
X0009303Y-0017917D01*
X0009414Y-0017806D01*
X0009525D01*
X0009636Y-0017917D01*
X0009692Y-0018028D01*
Y-0018250D01*
X0009636Y-0018361D01*
X0009525Y-0018472D01*
X0009414D01*
X0008881D02*
X0008992D01*
Y-0018361D01*
X0008881D01*
Y-0018472D01*
X0008236D02*
X0008125Y-0018361D01*
X0008069Y-0018250D01*
Y-0018028D01*
X0008125Y-0017917D01*
X0008236Y-0017806D01*
X0008347D01*
X0008458Y-0017917D01*
X0008514Y-0018028D01*
Y-0018250D01*
X0008458Y-0018361D01*
X0008347Y-0018472D01*
X0008236D01*
X0024708Y-0016750D02*
X0024264D01*
X0024486Y-0016306D01*
X0024597D01*
Y-0016972D01*
X0010647Y-0016861D02*
X0010703Y-0016972D01*
X0011036D01*
X0011092Y-0016861D01*
Y-0016639D01*
X0010981Y-0016528D01*
X0010647D01*
Y-0016306D01*
X0011092D01*
X0010392Y-0016750D02*
X0009947D01*
X0010169Y-0016306D01*
X0010281D01*
Y-0016972D01*
X0009414D02*
X0009303Y-0016861D01*
X0009247Y-0016750D01*
Y-0016528D01*
X0009303Y-0016417D01*
X0009414Y-0016306D01*
X0009525D01*
X0009636Y-0016417D01*
X0009692Y-0016528D01*
Y-0016750D01*
X0009636Y-0016861D01*
X0009525Y-0016972D01*
X0009414D01*
X0008881D02*
X0008992D01*
Y-0016861D01*
X0008881D01*
Y-0016972D01*
X0008236D02*
X0008125Y-0016861D01*
X0008069Y-0016750D01*
Y-0016528D01*
X0008125Y-0016417D01*
X0008236Y-0016306D01*
X0008347D01*
X0008458Y-0016417D01*
X0008514Y-0016528D01*
Y-0016750D01*
X0008458Y-0016861D01*
X0008347Y-0016972D01*
X0008236D01*
X0024319Y-0015139D02*
X0024653D01*
X0024708Y-0015250D01*
Y-0015361D01*
X0024653Y-0015472D01*
X0024319D01*
X0024264Y-0015361D01*
Y-0015250D01*
X0024486Y-0014806D01*
X0024008Y-0015472D02*
X0023786D01*
X0023897D02*
Y-0014806D01*
X0023786Y-0014917D01*
X0011092Y-0015472D02*
X0010647D01*
X0011092Y-0015028D01*
Y-0014917D01*
X0011036Y-0014806D01*
X0010703D01*
X0010647Y-0014917D01*
X0010392Y-0015250D02*
X0009947D01*
X0010169Y-0014806D01*
X0010281D01*
Y-0015472D01*
X0009414D02*
X0009303Y-0015361D01*
X0009247Y-0015250D01*
Y-0015028D01*
X0009303Y-0014917D01*
X0009414Y-0014806D01*
X0009525D01*
X0009636Y-0014917D01*
X0009692Y-0015028D01*
Y-0015250D01*
X0009636Y-0015361D01*
X0009525Y-0015472D01*
X0009414D01*
X0008881D02*
X0008992D01*
Y-0015361D01*
X0008881D01*
Y-0015472D01*
X0008236D02*
X0008125Y-0015361D01*
X0008069Y-0015250D01*
Y-0015028D01*
X0008125Y-0014917D01*
X0008236Y-0014806D01*
X0008347D01*
X0008458Y-0014917D01*
X0008514Y-0015028D01*
Y-0015250D01*
X0008458Y-0015361D01*
X0008347Y-0015472D01*
X0008236D01*
X0024653Y-0013639D02*
X0024708Y-0013528D01*
Y-0013417D01*
X0024653Y-0013306D01*
X0024319D01*
X0024264Y-0013417D01*
Y-0013528D01*
X0024319Y-0013639D01*
X0024653D01*
X0024708Y-0013750D01*
Y-0013861D01*
X0024653Y-0013972D01*
X0024319D01*
X0024264Y-0013861D01*
Y-0013750D01*
X0024319Y-0013639D01*
X0024008Y-0013750D02*
X0023564D01*
X0023786Y-0013306D01*
X0023897D01*
Y-0013972D01*
X0010814D02*
X0010703Y-0013861D01*
X0010647Y-0013750D01*
Y-0013528D01*
X0010703Y-0013417D01*
X0010814Y-0013306D01*
X0010925D01*
X0011036Y-0013417D01*
X0011092Y-0013528D01*
Y-0013750D01*
X0011036Y-0013861D01*
X0010925Y-0013972D01*
X0010814D01*
X0010392Y-0013750D02*
X0009947D01*
X0010169Y-0013306D01*
X0010281D01*
Y-0013972D01*
X0009414D02*
X0009303Y-0013861D01*
X0009247Y-0013750D01*
Y-0013528D01*
X0009303Y-0013417D01*
X0009414Y-0013306D01*
X0009525D01*
X0009636Y-0013417D01*
X0009692Y-0013528D01*
Y-0013750D01*
X0009636Y-0013861D01*
X0009525Y-0013972D01*
X0009414D01*
X0008881D02*
X0008992D01*
Y-0013861D01*
X0008881D01*
Y-0013972D01*
X0008236D02*
X0008125Y-0013861D01*
X0008069Y-0013750D01*
Y-0013528D01*
X0008125Y-0013417D01*
X0008236Y-0013306D01*
X0008347D01*
X0008458Y-0013417D01*
X0008514Y-0013528D01*
Y-0013750D01*
X0008458Y-0013861D01*
X0008347Y-0013972D01*
X0008236D01*
X0024708Y-0012472D02*
X0024264D01*
X0024708Y-0012028D01*
Y-0011917D01*
X0024653Y-0011806D01*
X0024319D01*
X0024264Y-0011917D01*
X0011036Y-0012139D02*
X0011092Y-0012028D01*
Y-0011917D01*
X0011036Y-0011806D01*
X0010703D01*
X0010647Y-0011917D01*
Y-0012028D01*
X0010703Y-0012139D01*
X0011036D01*
X0011092Y-0012250D01*
Y-0012361D01*
X0011036Y-0012472D01*
X0010703D01*
X0010647Y-0012361D01*
Y-0012250D01*
X0010703Y-0012139D01*
X0009947Y-0012361D02*
X0010058Y-0012472D01*
X0010281D01*
X0010392Y-0012361D01*
Y-0012250D01*
X0010169Y-0012028D01*
X0010392Y-0011806D01*
X0009947D01*
X0009414Y-0012472D02*
X0009303Y-0012361D01*
X0009247Y-0012250D01*
Y-0012028D01*
X0009303Y-0011917D01*
X0009414Y-0011806D01*
X0009525D01*
X0009636Y-0011917D01*
X0009692Y-0012028D01*
Y-0012250D01*
X0009636Y-0012361D01*
X0009525Y-0012472D01*
X0009414D01*
X0008881D02*
X0008992D01*
Y-0012361D01*
X0008881D01*
Y-0012472D01*
X0008236D02*
X0008125Y-0012361D01*
X0008069Y-0012250D01*
Y-0012028D01*
X0008125Y-0011917D01*
X0008236Y-0011806D01*
X0008347D01*
X0008458Y-0011917D01*
X0008514Y-0012028D01*
Y-0012250D01*
X0008458Y-0012361D01*
X0008347Y-0012472D01*
X0008236D01*
X0024708Y-0010750D02*
X0024264D01*
X0024486Y-0010306D01*
X0024597D01*
Y-0010972D01*
X0024008D02*
X0023564D01*
X0024008Y-0010528D01*
Y-0010417D01*
X0023953Y-0010306D01*
X0023619D01*
X0023564Y-0010417D01*
X0010647Y-0010861D02*
X0010703Y-0010972D01*
X0011036D01*
X0011092Y-0010861D01*
Y-0010639D01*
X0010981Y-0010528D01*
X0010647D01*
Y-0010306D01*
X0011092D01*
X0009947Y-0010861D02*
X0010058Y-0010972D01*
X0010281D01*
X0010392Y-0010861D01*
Y-0010750D01*
X0010169Y-0010528D01*
X0010392Y-0010306D01*
X0009947D01*
X0009414Y-0010972D02*
X0009303Y-0010861D01*
X0009247Y-0010750D01*
Y-0010528D01*
X0009303Y-0010417D01*
X0009414Y-0010306D01*
X0009525D01*
X0009636Y-0010417D01*
X0009692Y-0010528D01*
Y-0010750D01*
X0009636Y-0010861D01*
X0009525Y-0010972D01*
X0009414D01*
X0008881D02*
X0008992D01*
Y-0010861D01*
X0008881D01*
Y-0010972D01*
X0008236D02*
X0008125Y-0010861D01*
X0008069Y-0010750D01*
Y-0010528D01*
X0008125Y-0010417D01*
X0008236Y-0010306D01*
X0008347D01*
X0008458Y-0010417D01*
X0008514Y-0010528D01*
Y-0010750D01*
X0008458Y-0010861D01*
X0008347Y-0010972D01*
X0008236D01*
X0024653Y-0009139D02*
X0024708Y-0009028D01*
Y-0008917D01*
X0024653Y-0008806D01*
X0024319D01*
X0024264Y-0008917D01*
Y-0009028D01*
X0024319Y-0009139D01*
X0024653D01*
X0024708Y-0009250D01*
Y-0009361D01*
X0024653Y-0009472D01*
X0024319D01*
X0024264Y-0009361D01*
Y-0009250D01*
X0024319Y-0009139D01*
X0024008Y-0009472D02*
X0023564D01*
X0024008Y-0009028D01*
Y-0008917D01*
X0023953Y-0008806D01*
X0023619D01*
X0023564Y-0008917D01*
X0011092Y-0009250D02*
X0010647D01*
X0010869Y-0008806D01*
X0010981D01*
Y-0009472D01*
X0009947Y-0009361D02*
X0010058Y-0009472D01*
X0010281D01*
X0010392Y-0009361D01*
Y-0009250D01*
X0010169Y-0009028D01*
X0010392Y-0008806D01*
X0009947D01*
X0009414Y-0009472D02*
X0009303Y-0009361D01*
X0009247Y-0009250D01*
Y-0009028D01*
X0009303Y-0008917D01*
X0009414Y-0008806D01*
X0009525D01*
X0009636Y-0008917D01*
X0009692Y-0009028D01*
Y-0009250D01*
X0009636Y-0009361D01*
X0009525Y-0009472D01*
X0009414D01*
X0008881D02*
X0008992D01*
Y-0009361D01*
X0008881D01*
Y-0009472D01*
X0008236D02*
X0008125Y-0009361D01*
X0008069Y-0009250D01*
Y-0009028D01*
X0008125Y-0008917D01*
X0008236Y-0008806D01*
X0008347D01*
X0008458Y-0008917D01*
X0008514Y-0009028D01*
Y-0009250D01*
X0008458Y-0009361D01*
X0008347Y-0009472D01*
X0008236D01*
X0024431Y-0007972D02*
X0024319Y-0007861D01*
X0024264Y-0007750D01*
Y-0007528D01*
X0024319Y-0007417D01*
X0024431Y-0007306D01*
X0024542D01*
X0024653Y-0007417D01*
X0024708Y-0007528D01*
Y-0007750D01*
X0024653Y-0007861D01*
X0024542Y-0007972D01*
X0024431D01*
X0024008D02*
X0023786D01*
X0023897D02*
Y-0007306D01*
X0023786Y-0007417D01*
X0011092Y-0007972D02*
X0010869D01*
X0010981D02*
Y-0007306D01*
X0010869Y-0007417D01*
X0010058Y-0007861D02*
X0010169Y-0007972D01*
X0010392D01*
X0010503Y-0007861D01*
Y-0007750D01*
X0010281Y-0007528D01*
X0010503Y-0007306D01*
X0010058D01*
X0009525Y-0007972D02*
X0009414Y-0007861D01*
X0009358Y-0007750D01*
Y-0007528D01*
X0009414Y-0007417D01*
X0009525Y-0007306D01*
X0009636D01*
X0009747Y-0007417D01*
X0009803Y-0007528D01*
Y-0007750D01*
X0009747Y-0007861D01*
X0009636Y-0007972D01*
X0009525D01*
X0008992D02*
X0009103D01*
Y-0007861D01*
X0008992D01*
Y-0007972D01*
X0008347D02*
X0008236Y-0007861D01*
X0008181Y-0007750D01*
Y-0007528D01*
X0008236Y-0007417D01*
X0008347Y-0007306D01*
X0008458D01*
X0008569Y-0007417D01*
X0008625Y-0007528D01*
Y-0007750D01*
X0008569Y-0007861D01*
X0008458Y-0007972D01*
X0008347D01*
X0033112Y-0005833D02*
X0032612D01*
X0033279Y-0006333D02*
X0032612D01*
Y-0005333D01*
X0033279D01*
X0031996Y-0006333D02*
Y-0005333D01*
X0032329D02*
X0031662D01*
X0030796Y-0006333D02*
X0030712Y-0006167D01*
Y-0005500D01*
X0030796Y-0005333D01*
X0031296D01*
X0031379Y-0005500D01*
Y-0006167D01*
X0031296Y-0006333D01*
X0030796D01*
X0030429Y-0005333D02*
Y-0006333D01*
X0030262Y-0006167D01*
X0029929Y-0005500D01*
X0029762Y-0005333D01*
Y-0006333D01*
X0023925D02*
Y-0005833D01*
X0024258Y-0005333D02*
X0024008Y-0005833D01*
X0023842D01*
X0023592Y-0005333D01*
X0022975Y-0006333D02*
Y-0005333D01*
X0023308D02*
X0022642D01*
X0022025Y-0006000D02*
X0022358Y-0006333D01*
X0021692Y-0006167D02*
X0021775Y-0006333D01*
X0022108D01*
X0022192Y-0006167D01*
X0022358Y-0006000D01*
Y-0005500D01*
X0022275Y-0005333D01*
X0021775D01*
X0021692Y-0005500D01*
Y-0006167D01*
X0017408Y-0006333D02*
X0016825D01*
Y-0005333D01*
X0015958Y-0006333D02*
X0015875Y-0006167D01*
Y-0005500D01*
X0015958Y-0005333D01*
X0016458D01*
X0016542Y-0005500D01*
Y-0006167D01*
X0016458Y-0006333D01*
X0015958D01*
X0015258D02*
Y-0005333D01*
X0015592D02*
X0014925D01*
X0009587Y-0006333D02*
Y-0005333D01*
X0009421Y-0005500D01*
X0009254Y-0005833D01*
X0009087Y-0005500D01*
X0008921Y-0005333D01*
Y-0006333D01*
X0008637Y-0006000D02*
X0007971D01*
X0008637Y-0006333D02*
Y-0005833D01*
X0008387Y-0005333D01*
X0008221D01*
X0007971Y-0005833D01*
Y-0006333D01*
X0007687D02*
X0007354D01*
X0007521D02*
Y-0005333D01*
X0007687D02*
X0007354D01*
X0006321Y-0006333D02*
Y-0005333D01*
X0006237Y-0006333D02*
X0006737D01*
X0006904Y-0006000D01*
Y-0005667D01*
X0006737Y-0005333D01*
X0006237D01*
X0003150Y-0006333D02*
Y-0005333D01*
X0002983Y-0005500D01*
X0002817Y-0005833D01*
X0002650Y-0005500D01*
X0002483Y-0005333D01*
Y-0006333D01*
X0001867D02*
Y-0005833D01*
X0002200Y-0005333D02*
X0001950Y-0005833D01*
X0001783D01*
X0001533Y-0005333D01*
X0001250Y-0005500D02*
X0001167Y-0005333D01*
X0000667D01*
X0000583Y-0005500D01*
Y-0005667D01*
X0000667Y-0005833D01*
X0001167D01*
X0001250Y-0006000D01*
Y-0006167D01*
X0001167Y-0006333D01*
X0000667D01*
X0000583Y-0006167D01*
X0023437Y-0004333D02*
Y-0003333D01*
X0023771D02*
X0023104D01*
X0022571Y-0003833D02*
X0022821Y-0004333D01*
X0022154Y-0003833D02*
X0022654D01*
X0022821Y-0003667D01*
Y-0003500D01*
X0022654Y-0003333D01*
X0022154D01*
Y-0004333D01*
X0021871Y-0004000D02*
X0021204D01*
X0021871Y-0004333D02*
Y-0003833D01*
X0021621Y-0003333D01*
X0021454D01*
X0021204Y-0003833D01*
Y-0004333D01*
X0020921Y-0003833D02*
X0020254D01*
X0020921Y-0004333D02*
Y-0003333D01*
X0020254Y-0004333D02*
Y-0003333D01*
X0019971Y-0004167D02*
X0019887Y-0004333D01*
X0019387D01*
X0019304Y-0004167D01*
Y-0003500D01*
X0019387Y-0003333D01*
X0019887D01*
X0019971Y-0003500D01*
X0017696Y-0004333D02*
X0017112D01*
Y-0003333D01*
X0016829Y-0004333D02*
X0016246D01*
Y-0003333D01*
X0015962Y-0004333D02*
X0015629D01*
X0015796D02*
Y-0003333D01*
X0015962D02*
X0015629D01*
X0014929Y-0003833D02*
X0015179Y-0004333D01*
X0014512Y-0003833D02*
X0015012D01*
X0015179Y-0003667D01*
Y-0003500D01*
X0015012Y-0003333D01*
X0014512D01*
Y-0004333D01*
X0013646D02*
Y-0003333D01*
X0013562Y-0004333D02*
X0014062D01*
X0014229Y-0004000D01*
Y-0003667D01*
X0014062Y-0003333D01*
X0013562D01*
X-0001208Y0024976D02*
X-0001292Y0024893D01*
X-0001375Y0024851D01*
X-0001542D01*
X-0001625Y0024893D01*
X-0001708Y0024976D01*
Y0025060D01*
X-0001625Y0025143D01*
X-0001542Y0025185D01*
X-0001375D01*
X-0001292Y0025143D01*
X-0001208Y0025060D01*
Y0024976D01*
Y0024401D02*
X-0001292Y0024318D01*
X-0001375Y0024276D01*
X-0001542D01*
X-0001625Y0024318D01*
X-0001708Y0024401D01*
Y0024485D01*
X-0001625Y0024568D01*
X-0001542Y0024610D01*
X-0001375D01*
X-0001292Y0024568D01*
X-0001208Y0024485D01*
Y0024401D01*
Y0023951D02*
Y0024035D01*
X-0001292D01*
Y0023951D01*
X-0001208D01*
Y0023418D02*
X-0001292Y0023335D01*
X-0001375Y0023293D01*
X-0001542D01*
X-0001625Y0023335D01*
X-0001708Y0023418D01*
Y0023501D01*
X-0001625Y0023585D01*
X-0001542Y0023626D01*
X-0001375D01*
X-0001292Y0023585D01*
X-0001208Y0023501D01*
Y0023418D01*
Y0023051D02*
Y0022718D01*
X-0001542Y0023051D01*
X-0001625D01*
X-0001708Y0023010D01*
Y0022760D01*
X-0001625Y0022718D01*
X-0001208Y0022476D02*
Y0022310D01*
Y0022393D02*
X-0001708D01*
X-0001625Y0022310D01*
X0017602Y-0001473D02*
X0017519Y-0001389D01*
X0017477Y-0001306D01*
Y-0001139D01*
X0017519Y-0001056D01*
X0017602Y-0000973D01*
X0017686D01*
X0017769Y-0001056D01*
X0017811Y-0001139D01*
Y-0001306D01*
X0017769Y-0001389D01*
X0017686Y-0001473D01*
X0017602D01*
X0017027D02*
X0016944Y-0001389D01*
X0016902Y-0001306D01*
Y-0001139D01*
X0016944Y-0001056D01*
X0017027Y-0000973D01*
X0017111D01*
X0017194Y-0001056D01*
X0017236Y-0001139D01*
Y-0001306D01*
X0017194Y-0001389D01*
X0017111Y-0001473D01*
X0017027D01*
X0016577D02*
X0016661D01*
Y-0001389D01*
X0016577D01*
Y-0001473D01*
X0016252Y-0001306D02*
X0015919D01*
X0016086Y-0000973D01*
X0016169D01*
Y-0001473D01*
X0015636Y-0001223D02*
X0015677Y-0001139D01*
Y-0001056D01*
X0015636Y-0000973D01*
X0015386D01*
X0015344Y-0001056D01*
Y-0001139D01*
X0015386Y-0001223D01*
X0015636D01*
X0015677Y-0001306D01*
Y-0001389D01*
X0015636Y-0001473D01*
X0015386D01*
X0015344Y-0001389D01*
Y-0001306D01*
X0015386Y-0001223D01*
X0002075Y-0021000D02*
X0001575Y-0021500D01*
X0002075D02*
X0001575Y-0021000D01*
Y-0019650D02*
Y-0019850D01*
X0001725Y-0019500D02*
X0001575Y-0019650D01*
X0001925Y-0019500D02*
X0001725D01*
X0002075Y-0019650D02*
X0001925Y-0019500D01*
X0002075Y-0019850D02*
Y-0019650D01*
X0001925Y-0020000D02*
X0002075Y-0019850D01*
X0001725Y-0020000D02*
X0001925D01*
X0001575Y-0019850D02*
X0001725Y-0020000D01*
X0001775Y-0019650D02*
Y-0019600D01*
X0001725Y-0019650D02*
X0001775D01*
X0001725Y-0019600D02*
Y-0019650D01*
X0001775Y-0019600D02*
X0001725D01*
X0001875D02*
Y-0019650D01*
X0001925Y-0019600D02*
X0001875D01*
X0001925Y-0019650D02*
Y-0019600D01*
X0001875Y-0019650D02*
X0001925D01*
X0001775Y-0019900D02*
X0001675Y-0019800D01*
X0001875Y-0019900D02*
X0001775D01*
X0001975Y-0019800D02*
X0001875Y-0019900D01*
X0001575Y-0018150D02*
Y-0018350D01*
X0001825Y-0018400D02*
X0001575Y-0018150D01*
X0002075D02*
X0001825Y-0018400D01*
X0002075Y-0018350D02*
Y-0018150D01*
X0001825Y-0018100D02*
X0002075Y-0018350D01*
X0001575D02*
X0001825Y-0018100D01*
Y-0016600D02*
X0001575Y-0016850D01*
X0002075D02*
X0001825Y-0016600D01*
X0001575Y-0016850D02*
X0002075D01*
X0001575Y-0015150D02*
Y-0015350D01*
X0001725Y-0015000D02*
X0001575Y-0015150D01*
X0001925Y-0015000D02*
X0001725D01*
X0002075Y-0015150D02*
X0001925Y-0015000D01*
X0002075Y-0015350D02*
Y-0015150D01*
X0001925Y-0015500D02*
X0002075Y-0015350D01*
X0001725Y-0015500D02*
X0001925D01*
X0001575Y-0015350D02*
X0001725Y-0015500D01*
X0001575Y-0013500D02*
Y-0013750D01*
X0001825Y-0013500D02*
X0001575D01*
X0001825Y-0014000D02*
Y-0013500D01*
X0002075Y-0014000D02*
X0001825D01*
X0002075Y-0013750D02*
Y-0014000D01*
X0001575Y-0013750D02*
X0002075D01*
X0001575Y-0012000D02*
Y-0012500D01*
X0002075Y-0012000D02*
X0001575D01*
X0002075Y-0012500D02*
Y-0012000D01*
X0001575Y-0012500D02*
X0002075D01*
Y-0012250D02*
X0001575D01*
X0001825Y-0012000D02*
Y-0012500D01*
X0001575Y-0010500D02*
Y-0011000D01*
X0002075Y-0010500D02*
X0001575D01*
X0002075Y-0011000D02*
Y-0010500D01*
X0001575Y-0011000D02*
X0002075D01*
Y-0010500D02*
X0001575Y-0011000D01*
X0002075D02*
X0001575Y-0010500D01*
X0001825Y-0009000D02*
X0001575Y-0009250D01*
X0002075D02*
X0001825Y-0009000D01*
Y-0009500D02*
X0002075Y-0009250D01*
X0001575D02*
X0001825Y-0009500D01*
X0002075Y-0007750D02*
X0001575D01*
X0001825Y-0007500D02*
Y-0008000D01*
X0037300Y-0024050D02*
X-0000050D01*
X0037250Y-0024000D02*
X0000000D01*
X0037250Y-0022000D02*
X0000000D01*
X0037250Y-0020500D02*
X0000000D01*
X0037250Y-0019000D02*
X0000000D01*
X0037250Y-0017500D02*
X0000000D01*
X0037250Y-0016000D02*
X0000000D01*
X0037250Y-0014500D02*
X0000000D01*
X0037250Y-0013000D02*
X0000000D01*
X0037250Y-0011500D02*
X0000000D01*
X0037250Y-0010000D02*
X0000000D01*
X0037250Y-0008500D02*
X0000000D01*
X0037250Y-0007000D02*
X0000000D01*
X0037250Y-0006950D02*
X0000000D01*
X0037250Y-0005000D02*
X0000000D01*
X0037250Y-0004950D02*
X0000000D01*
X0037250Y-0003000D02*
X0000000D01*
X0037300Y-0002950D02*
X-0000050D01*
X0037300Y-0024000D02*
Y-0003000D01*
X0037250Y-0024000D02*
Y-0003000D01*
X0025708Y-0024000D02*
Y-0005000D01*
X0020158Y-0024000D02*
Y-0005000D01*
X0012092Y-0022000D02*
Y-0005000D01*
X0003700Y-0022000D02*
Y-0005000D01*
X0003650Y-0022000D02*
Y-0005000D01*
X-0000050Y-0024000D02*
Y-0003000D01*
X0000000Y-0024000D02*
Y-0003000D01*
X-0000375Y0047244D02*
X-0002625D01*
X-0001500Y0025622D02*
Y0047244D01*
X-0001687Y0046682D02*
X-0001500Y0047244D01*
X-0001312Y0046682D01*
X-0000375Y0000000D02*
X-0002625D01*
X-0001500Y0021622D02*
Y0000000D01*
X-0001312Y0000562D02*
X-0001500Y0000000D01*
X-0001687Y0000562D01*
X0033071Y-0002306D02*
Y-0000056D01*
X0018332Y-0001181D02*
X0033071D01*
X0032509Y-0000994D02*
X0033071Y-0001181D01*
X0032509Y-0001369D01*
X0000000Y-0002306D02*
Y-0000056D01*
X0014740Y-0001181D02*
X0000000D01*
X0000562Y-0001369D02*
X0000000Y-0001181D01*
X0000562Y-0000994D01*
X0008750Y0019750D02*
Y0019250D01*
X0009250Y0019750D02*
X0008750D01*
X0009250Y0019250D02*
Y0019750D01*
X0008750Y0019250D02*
X0009250D01*
Y0019500D02*
X0008750D01*
X0009000Y0019750D02*
Y0019250D01*
X0008750Y0017750D02*
Y0017250D01*
X0009250Y0017750D02*
X0008750D01*
X0009250Y0017250D02*
Y0017750D01*
X0008750Y0017250D02*
X0009250D01*
Y0017500D02*
X0008750D01*
X0009000Y0017750D02*
Y0017250D01*
X0013750Y0003600D02*
Y0003400D01*
X0014000Y0003350D02*
X0013750Y0003600D01*
X0014250D02*
X0014000Y0003350D01*
X0014250Y0003400D02*
Y0003600D01*
X0014000Y0003650D02*
X0014250Y0003400D01*
X0013750D02*
X0014000Y0003650D01*
X0014750Y0003600D02*
Y0003400D01*
X0015000Y0003350D02*
X0014750Y0003600D01*
X0015250D02*
X0015000Y0003350D01*
X0015250Y0003400D02*
Y0003600D01*
X0015000Y0003650D02*
X0015250Y0003400D01*
X0014750D02*
X0015000Y0003650D01*
X0015750Y0003600D02*
Y0003400D01*
X0016000Y0003350D02*
X0015750Y0003600D01*
X0016250D02*
X0016000Y0003350D01*
X0016250Y0003400D02*
Y0003600D01*
X0016000Y0003650D02*
X0016250Y0003400D01*
X0015750D02*
X0016000Y0003650D01*
X0011500Y0027750D02*
X0011250Y0027500D01*
X0011750D02*
X0011500Y0027750D01*
Y0027250D02*
X0011750Y0027500D01*
X0011250D02*
X0011500Y0027250D01*
Y0026750D02*
X0011250Y0026500D01*
X0011750D02*
X0011500Y0026750D01*
Y0026250D02*
X0011750Y0026500D01*
X0011250D02*
X0011500Y0026250D01*
Y0025750D02*
X0011250Y0025500D01*
X0011750D02*
X0011500Y0025750D01*
Y0025250D02*
X0011750Y0025500D01*
X0011250D02*
X0011500Y0025250D01*
Y0024750D02*
X0011250Y0024500D01*
X0011750D02*
X0011500Y0024750D01*
Y0024250D02*
X0011750Y0024500D01*
X0011250D02*
X0011500Y0024250D01*
Y0023750D02*
X0011250Y0023500D01*
X0011750D02*
X0011500Y0023750D01*
Y0023250D02*
X0011750Y0023500D01*
X0011250D02*
X0011500Y0023250D01*
Y0022750D02*
X0011250Y0022500D01*
X0011750D02*
X0011500Y0022750D01*
Y0022250D02*
X0011750Y0022500D01*
X0011250D02*
X0011500Y0022250D01*
Y0021750D02*
X0011250Y0021500D01*
X0011750D02*
X0011500Y0021750D01*
Y0021250D02*
X0011750Y0021500D01*
X0011250D02*
X0011500Y0021250D01*
Y0020750D02*
X0011250Y0020500D01*
X0011750D02*
X0011500Y0020750D01*
Y0020250D02*
X0011750Y0020500D01*
X0011250D02*
X0011500Y0020250D01*
Y0019750D02*
X0011250Y0019500D01*
X0011750D02*
X0011500Y0019750D01*
Y0019250D02*
X0011750Y0019500D01*
X0011250D02*
X0011500Y0019250D01*
Y0018750D02*
X0011250Y0018500D01*
X0011750D02*
X0011500Y0018750D01*
Y0018250D02*
X0011750Y0018500D01*
X0011250D02*
X0011500Y0018250D01*
Y0017750D02*
X0011250Y0017500D01*
X0011750D02*
X0011500Y0017750D01*
Y0017250D02*
X0011750Y0017500D01*
X0011250D02*
X0011500Y0017250D01*
Y0016750D02*
X0011250Y0016500D01*
X0011750D02*
X0011500Y0016750D01*
Y0016250D02*
X0011750Y0016500D01*
X0011250D02*
X0011500Y0016250D01*
Y0015750D02*
X0011250Y0015500D01*
X0011750D02*
X0011500Y0015750D01*
Y0015250D02*
X0011750Y0015500D01*
X0011250D02*
X0011500Y0015250D01*
Y0014750D02*
X0011250Y0014500D01*
X0011750D02*
X0011500Y0014750D01*
Y0014250D02*
X0011750Y0014500D01*
X0011250D02*
X0011500Y0014250D01*
X0014500Y0014750D02*
X0014250Y0014500D01*
X0014750D02*
X0014500Y0014750D01*
Y0014250D02*
X0014750Y0014500D01*
X0014250D02*
X0014500Y0014250D01*
Y0015750D02*
X0014250Y0015500D01*
X0014750D02*
X0014500Y0015750D01*
Y0015250D02*
X0014750Y0015500D01*
X0014250D02*
X0014500Y0015250D01*
Y0016750D02*
X0014250Y0016500D01*
X0014750D02*
X0014500Y0016750D01*
Y0016250D02*
X0014750Y0016500D01*
X0014250D02*
X0014500Y0016250D01*
Y0017750D02*
X0014250Y0017500D01*
X0014750D02*
X0014500Y0017750D01*
Y0017250D02*
X0014750Y0017500D01*
X0014250D02*
X0014500Y0017250D01*
Y0018750D02*
X0014250Y0018500D01*
X0014750D02*
X0014500Y0018750D01*
Y0018250D02*
X0014750Y0018500D01*
X0014250D02*
X0014500Y0018250D01*
Y0019750D02*
X0014250Y0019500D01*
X0014750D02*
X0014500Y0019750D01*
Y0019250D02*
X0014750Y0019500D01*
X0014250D02*
X0014500Y0019250D01*
Y0020750D02*
X0014250Y0020500D01*
X0014750D02*
X0014500Y0020750D01*
Y0020250D02*
X0014750Y0020500D01*
X0014250D02*
X0014500Y0020250D01*
Y0021750D02*
X0014250Y0021500D01*
X0014750D02*
X0014500Y0021750D01*
Y0021250D02*
X0014750Y0021500D01*
X0014250D02*
X0014500Y0021250D01*
Y0022750D02*
X0014250Y0022500D01*
X0014750D02*
X0014500Y0022750D01*
Y0022250D02*
X0014750Y0022500D01*
X0014250D02*
X0014500Y0022250D01*
Y0023750D02*
X0014250Y0023500D01*
X0014750D02*
X0014500Y0023750D01*
Y0023250D02*
X0014750Y0023500D01*
X0014250D02*
X0014500Y0023250D01*
Y0024750D02*
X0014250Y0024500D01*
X0014750D02*
X0014500Y0024750D01*
Y0024250D02*
X0014750Y0024500D01*
X0014250D02*
X0014500Y0024250D01*
Y0025750D02*
X0014250Y0025500D01*
X0014750D02*
X0014500Y0025750D01*
Y0025250D02*
X0014750Y0025500D01*
X0014250D02*
X0014500Y0025250D01*
Y0026750D02*
X0014250Y0026500D01*
X0014750D02*
X0014500Y0026750D01*
Y0026250D02*
X0014750Y0026500D01*
X0014250D02*
X0014500Y0026250D01*
Y0027750D02*
X0014250Y0027500D01*
X0014750D02*
X0014500Y0027750D01*
Y0027250D02*
X0014750Y0027500D01*
X0014250D02*
X0014500Y0027250D01*
X0017750Y0016000D02*
X0017250D01*
X0017500Y0016250D02*
Y0015750D01*
X0017750Y0017000D02*
X0017250D01*
X0017500Y0017250D02*
Y0016750D01*
X0017750Y0018000D02*
X0017250D01*
X0017500Y0018250D02*
Y0017750D01*
X0019250Y0027750D02*
Y0027250D01*
X0019750Y0027750D02*
X0019250D01*
X0019750Y0027250D02*
Y0027750D01*
X0019250Y0027250D02*
X0019750D01*
Y0027750D02*
X0019250Y0027250D01*
X0019750D02*
X0019250Y0027750D01*
X0021250Y0030750D02*
Y0030250D01*
X0021750Y0030750D02*
X0021250D01*
X0021750Y0030250D02*
Y0030750D01*
X0021250Y0030250D02*
X0021750D01*
Y0030750D02*
X0021250Y0030250D01*
X0021750D02*
X0021250Y0030750D01*
Y0027750D02*
Y0027250D01*
X0021750Y0027750D02*
X0021250D01*
X0021750Y0027250D02*
Y0027750D01*
X0021250Y0027250D02*
X0021750D01*
Y0027750D02*
X0021250Y0027250D01*
X0021750D02*
X0021250Y0027750D01*
X0019250Y0030750D02*
Y0030250D01*
X0019750Y0030750D02*
X0019250D01*
X0019750Y0030250D02*
Y0030750D01*
X0019250Y0030250D02*
X0019750D01*
Y0030750D02*
X0019250Y0030250D01*
X0019750D02*
X0019250Y0030750D01*
X0024250Y0027750D02*
Y0027250D01*
X0024750Y0027750D02*
X0024250D01*
X0024750Y0027250D02*
Y0027750D01*
X0024250Y0027250D02*
X0024750D01*
Y0027750D02*
X0024250Y0027250D01*
X0024750D02*
X0024250Y0027750D01*
X0026250Y0030750D02*
Y0030250D01*
X0026750Y0030750D02*
X0026250D01*
X0026750Y0030250D02*
Y0030750D01*
X0026250Y0030250D02*
X0026750D01*
Y0030750D02*
X0026250Y0030250D01*
X0026750D02*
X0026250Y0030750D01*
Y0027750D02*
Y0027250D01*
X0026750Y0027750D02*
X0026250D01*
X0026750Y0027250D02*
Y0027750D01*
X0026250Y0027250D02*
X0026750D01*
Y0027750D02*
X0026250Y0027250D01*
X0026750D02*
X0026250Y0027750D01*
X0024250Y0030750D02*
Y0030250D01*
X0024750Y0030750D02*
X0024250D01*
X0024750Y0030250D02*
Y0030750D01*
X0024250Y0030250D02*
X0024750D01*
Y0030750D02*
X0024250Y0030250D01*
X0024750D02*
X0024250Y0030750D01*
X0029250Y0027750D02*
Y0027250D01*
X0029750Y0027750D02*
X0029250D01*
X0029750Y0027250D02*
Y0027750D01*
X0029250Y0027250D02*
X0029750D01*
Y0027750D02*
X0029250Y0027250D01*
X0029750D02*
X0029250Y0027750D01*
X0031250Y0030750D02*
Y0030250D01*
X0031750Y0030750D02*
X0031250D01*
X0031750Y0030250D02*
Y0030750D01*
X0031250Y0030250D02*
X0031750D01*
Y0030750D02*
X0031250Y0030250D01*
X0031750D02*
X0031250Y0030750D01*
Y0027750D02*
Y0027250D01*
X0031750Y0027750D02*
X0031250D01*
X0031750Y0027250D02*
Y0027750D01*
X0031250Y0027250D02*
X0031750D01*
Y0027750D02*
X0031250Y0027250D01*
X0031750D02*
X0031250Y0027750D01*
X0029250Y0030750D02*
Y0030250D01*
X0029750Y0030750D02*
X0029250D01*
X0029750Y0030250D02*
Y0030750D01*
X0029250Y0030250D02*
X0029750D01*
Y0030750D02*
X0029250Y0030250D01*
X0029750D02*
X0029250Y0030750D01*
X0006750Y0024750D02*
Y0024250D01*
X0007250Y0024750D02*
X0006750D01*
X0007250Y0024250D02*
Y0024750D01*
X0006750Y0024250D02*
X0007250D01*
Y0024750D02*
X0006750Y0024250D01*
X0007250D02*
X0006750Y0024750D01*
X0008750Y0027750D02*
Y0027250D01*
X0009250Y0027750D02*
X0008750D01*
X0009250Y0027250D02*
Y0027750D01*
X0008750Y0027250D02*
X0009250D01*
Y0027750D02*
X0008750Y0027250D01*
X0009250D02*
X0008750Y0027750D01*
Y0024750D02*
Y0024250D01*
X0009250Y0024750D02*
X0008750D01*
X0009250Y0024250D02*
Y0024750D01*
X0008750Y0024250D02*
X0009250D01*
Y0024750D02*
X0008750Y0024250D01*
X0009250D02*
X0008750Y0024750D01*
X0006750Y0027750D02*
Y0027250D01*
X0007250Y0027750D02*
X0006750D01*
X0007250Y0027250D02*
Y0027750D01*
X0006750Y0027250D02*
X0007250D01*
Y0027750D02*
X0006750Y0027250D01*
X0007250D02*
X0006750Y0027750D01*
X0007750Y0005250D02*
Y0004750D01*
X0008250Y0005250D02*
X0007750D01*
X0008250Y0004750D02*
Y0005250D01*
X0007750Y0004750D02*
X0008250D01*
Y0005250D02*
X0007750Y0004750D01*
X0008250D02*
X0007750Y0005250D01*
Y0004250D02*
Y0003750D01*
X0008250Y0004250D02*
X0007750D01*
X0008250Y0003750D02*
Y0004250D01*
X0007750Y0003750D02*
X0008250D01*
Y0004250D02*
X0007750Y0003750D01*
X0008250D02*
X0007750Y0004250D01*
Y0003250D02*
Y0002750D01*
X0008250Y0003250D02*
X0007750D01*
X0008250Y0002750D02*
Y0003250D01*
X0007750Y0002750D02*
X0008250D01*
Y0003250D02*
X0007750Y0002750D01*
X0008250D02*
X0007750Y0003250D01*
X0021250Y0026250D02*
Y0026000D01*
X0021500Y0026250D02*
X0021250D01*
X0021500Y0025750D02*
Y0026250D01*
X0021750Y0025750D02*
X0021500D01*
X0021750Y0026000D02*
Y0025750D01*
X0021250Y0026000D02*
X0021750D01*
X0021250Y0022250D02*
Y0022000D01*
X0021500Y0022250D02*
X0021250D01*
X0021500Y0021750D02*
Y0022250D01*
X0021750Y0021750D02*
X0021500D01*
X0021750Y0022000D02*
Y0021750D01*
X0021250Y0022000D02*
X0021750D01*
X0026250Y0026250D02*
Y0026000D01*
X0026500Y0026250D02*
X0026250D01*
X0026500Y0025750D02*
Y0026250D01*
X0026750Y0025750D02*
X0026500D01*
X0026750Y0026000D02*
Y0025750D01*
X0026250Y0026000D02*
X0026750D01*
X0026250Y0022250D02*
Y0022000D01*
X0026500Y0022250D02*
X0026250D01*
X0026500Y0021750D02*
Y0022250D01*
X0026750Y0021750D02*
X0026500D01*
X0026750Y0022000D02*
Y0021750D01*
X0026250Y0022000D02*
X0026750D01*
X0031250Y0026250D02*
Y0026000D01*
X0031500Y0026250D02*
X0031250D01*
X0031500Y0025750D02*
Y0026250D01*
X0031750Y0025750D02*
X0031500D01*
X0031750Y0026000D02*
Y0025750D01*
X0031250Y0026000D02*
X0031750D01*
X0031250Y0022250D02*
Y0022000D01*
X0031500Y0022250D02*
X0031250D01*
X0031500Y0021750D02*
Y0022250D01*
X0031750Y0021750D02*
X0031500D01*
X0031750Y0022000D02*
Y0021750D01*
X0031250Y0022000D02*
X0031750D01*
X0023250Y0020250D02*
Y0020000D01*
X0023500Y0020250D02*
X0023250D01*
X0023500Y0019750D02*
Y0020250D01*
X0023750Y0019750D02*
X0023500D01*
X0023750Y0020000D02*
Y0019750D01*
X0023250Y0020000D02*
X0023750D01*
X0027250Y0020250D02*
Y0020000D01*
X0027500Y0020250D02*
X0027250D01*
X0027500Y0019750D02*
Y0020250D01*
X0027750Y0019750D02*
X0027500D01*
X0027750Y0020000D02*
Y0019750D01*
X0027250Y0020000D02*
X0027750D01*
X0027250Y0016250D02*
Y0016000D01*
X0027500Y0016250D02*
X0027250D01*
X0027500Y0015750D02*
Y0016250D01*
X0027750Y0015750D02*
X0027500D01*
X0027750Y0016000D02*
Y0015750D01*
X0027250Y0016000D02*
X0027750D01*
X0023250Y0016250D02*
Y0016000D01*
X0023500Y0016250D02*
X0023250D01*
X0023500Y0015750D02*
Y0016250D01*
X0023750Y0015750D02*
X0023500D01*
X0023750Y0016000D02*
Y0015750D01*
X0023250Y0016000D02*
X0023750D01*
X0021250Y0020250D02*
Y0020000D01*
X0021500Y0020250D02*
X0021250D01*
X0021500Y0019750D02*
Y0020250D01*
X0021750Y0019750D02*
X0021500D01*
X0021750Y0020000D02*
Y0019750D01*
X0021250Y0020000D02*
X0021750D01*
X0021250Y0016250D02*
Y0016000D01*
X0021500Y0016250D02*
X0021250D01*
X0021500Y0015750D02*
Y0016250D01*
X0021750Y0015750D02*
X0021500D01*
X0021750Y0016000D02*
Y0015750D01*
X0021250Y0016000D02*
X0021750D01*
X0017250Y0026750D02*
Y0026250D01*
X0017750Y0026750D02*
X0017250D01*
X0017750Y0026250D02*
Y0026750D01*
X0017250Y0026250D02*
X0017750D01*
Y0026750D02*
X0017250Y0026250D01*
X0017750D02*
X0017250Y0026750D01*
Y0025250D02*
Y0024750D01*
X0017750Y0025250D02*
X0017250D01*
X0017750Y0024750D02*
Y0025250D01*
X0017250Y0024750D02*
X0017750D01*
Y0025250D02*
X0017250Y0024750D01*
X0017750D02*
X0017250Y0025250D01*
Y0023750D02*
Y0023500D01*
X0017500Y0023750D02*
X0017250D01*
X0017500Y0023250D02*
Y0023750D01*
X0017750Y0023250D02*
X0017500D01*
X0017750Y0023500D02*
Y0023250D01*
X0017250Y0023500D02*
X0017750D01*
X0017250Y0019750D02*
Y0019500D01*
X0017500Y0019750D02*
X0017250D01*
X0017500Y0019250D02*
Y0019750D01*
X0017750Y0019250D02*
X0017500D01*
X0017750Y0019500D02*
Y0019250D01*
X0017250Y0019500D02*
X0017750D01*
X0027250Y0010250D02*
Y0010000D01*
X0027500Y0010250D02*
X0027250D01*
X0027500Y0009750D02*
Y0010250D01*
X0027750Y0009750D02*
X0027500D01*
X0027750Y0010000D02*
Y0009750D01*
X0027250Y0010000D02*
X0027750D01*
X0027250Y0006250D02*
Y0006000D01*
X0027500Y0006250D02*
X0027250D01*
X0027500Y0005750D02*
Y0006250D01*
X0027750Y0005750D02*
X0027500D01*
X0027750Y0006000D02*
Y0005750D01*
X0027250Y0006000D02*
X0027750D01*
X0023250Y0010250D02*
Y0010000D01*
X0023500Y0010250D02*
X0023250D01*
X0023500Y0009750D02*
Y0010250D01*
X0023750Y0009750D02*
X0023500D01*
X0023750Y0010000D02*
Y0009750D01*
X0023250Y0010000D02*
X0023750D01*
X0023250Y0006250D02*
Y0006000D01*
X0023500Y0006250D02*
X0023250D01*
X0023500Y0005750D02*
Y0006250D01*
X0023750Y0005750D02*
X0023500D01*
X0023750Y0006000D02*
Y0005750D01*
X0023250Y0006000D02*
X0023750D01*
X0019250Y0010250D02*
Y0010000D01*
X0019500Y0010250D02*
X0019250D01*
X0019500Y0009750D02*
Y0010250D01*
X0019750Y0009750D02*
X0019500D01*
X0019750Y0010000D02*
Y0009750D01*
X0019250Y0010000D02*
X0019750D01*
X0019250Y0006250D02*
Y0006000D01*
X0019500Y0006250D02*
X0019250D01*
X0019500Y0005750D02*
Y0006250D01*
X0019750Y0005750D02*
X0019500D01*
X0019750Y0006000D02*
Y0005750D01*
X0019250Y0006000D02*
X0019750D01*
X0002750Y0029750D02*
Y0029250D01*
X0003250Y0029750D02*
X0002750D01*
X0003250Y0029250D02*
Y0029750D01*
X0002750Y0029250D02*
X0003250D01*
Y0029750D02*
X0002750Y0029250D01*
X0003250D02*
X0002750Y0029750D01*
Y0028750D02*
Y0028250D01*
X0003250Y0028750D02*
X0002750D01*
X0003250Y0028250D02*
Y0028750D01*
X0002750Y0028250D02*
X0003250D01*
Y0028750D02*
X0002750Y0028250D01*
X0003250D02*
X0002750Y0028750D01*
Y0027750D02*
Y0027250D01*
X0003250Y0027750D02*
X0002750D01*
X0003250Y0027250D02*
Y0027750D01*
X0002750Y0027250D02*
X0003250D01*
Y0027750D02*
X0002750Y0027250D01*
X0003250D02*
X0002750Y0027750D01*
X0009250Y0030250D02*
Y0030000D01*
X0009500Y0030250D02*
X0009250D01*
X0009500Y0029750D02*
Y0030250D01*
X0009750Y0029750D02*
X0009500D01*
X0009750Y0030000D02*
Y0029750D01*
X0009250Y0030000D02*
X0009750D01*
X0005250Y0030250D02*
Y0030000D01*
X0005500Y0030250D02*
X0005250D01*
X0005500Y0029750D02*
Y0030250D01*
X0005750Y0029750D02*
X0005500D01*
X0005750Y0030000D02*
Y0029750D01*
X0005250Y0030000D02*
X0005750D01*
X0021750Y0012500D02*
X0021250D01*
X0021500Y0012750D02*
Y0012250D01*
X0021750Y0013500D02*
X0021250D01*
X0021500Y0013750D02*
Y0013250D01*
X0021750Y0014500D02*
X0021250D01*
X0021500Y0014750D02*
Y0014250D01*
X0029750Y0018250D02*
Y0018000D01*
X0030000Y0018250D02*
X0029750D01*
X0030000Y0017750D02*
Y0018250D01*
X0030250Y0017750D02*
X0030000D01*
X0030250Y0018000D02*
Y0017750D01*
X0029750Y0018000D02*
X0030250D01*
X0030750Y0018250D02*
Y0018000D01*
X0031000Y0018250D02*
X0030750D01*
X0031000Y0017750D02*
Y0018250D01*
X0031250Y0017750D02*
X0031000D01*
X0031250Y0018000D02*
Y0017750D01*
X0030750Y0018000D02*
X0031250D01*
X0027250Y0004250D02*
Y0004000D01*
X0027500Y0004250D02*
X0027250D01*
X0027500Y0003750D02*
Y0004250D01*
X0027750Y0003750D02*
X0027500D01*
X0027750Y0004000D02*
Y0003750D01*
X0027250Y0004000D02*
X0027750D01*
X0027250Y0003250D02*
Y0003000D01*
X0027500Y0003250D02*
X0027250D01*
X0027500Y0002750D02*
Y0003250D01*
X0027750Y0002750D02*
X0027500D01*
X0027750Y0003000D02*
Y0002750D01*
X0027250Y0003000D02*
X0027750D01*
X0023250Y0004250D02*
Y0004000D01*
X0023500Y0004250D02*
X0023250D01*
X0023500Y0003750D02*
Y0004250D01*
X0023750Y0003750D02*
X0023500D01*
X0023750Y0004000D02*
Y0003750D01*
X0023250Y0004000D02*
X0023750D01*
X0023250Y0003250D02*
Y0003000D01*
X0023500Y0003250D02*
X0023250D01*
X0023500Y0002750D02*
Y0003250D01*
X0023750Y0002750D02*
X0023500D01*
X0023750Y0003000D02*
Y0002750D01*
X0023250Y0003000D02*
X0023750D01*
X0019250Y0004250D02*
Y0004000D01*
X0019500Y0004250D02*
X0019250D01*
X0019500Y0003750D02*
Y0004250D01*
X0019750Y0003750D02*
X0019500D01*
X0019750Y0004000D02*
Y0003750D01*
X0019250Y0004000D02*
X0019750D01*
X0019250Y0003250D02*
Y0003000D01*
X0019500Y0003250D02*
X0019250D01*
X0019500Y0002750D02*
Y0003250D01*
X0019750Y0002750D02*
X0019500D01*
X0019750Y0003000D02*
Y0002750D01*
X0019250Y0003000D02*
X0019750D01*
X0003687Y0045572D02*
Y0045372D01*
X0003837Y0045722D02*
X0003687Y0045572D01*
X0004037Y0045722D02*
X0003837D01*
X0004187Y0045572D02*
X0004037Y0045722D01*
X0004187Y0045372D02*
Y0045572D01*
X0004037Y0045222D02*
X0004187Y0045372D01*
X0003837Y0045222D02*
X0004037D01*
X0003687Y0045372D02*
X0003837Y0045222D01*
X0004687Y0045572D02*
Y0045372D01*
X0004837Y0045722D02*
X0004687Y0045572D01*
X0005037Y0045722D02*
X0004837D01*
X0005187Y0045572D02*
X0005037Y0045722D01*
X0005187Y0045372D02*
Y0045572D01*
X0005037Y0045222D02*
X0005187Y0045372D01*
X0004837Y0045222D02*
X0005037D01*
X0004687Y0045372D02*
X0004837Y0045222D01*
X0005687Y0045572D02*
Y0045372D01*
X0005837Y0045722D02*
X0005687Y0045572D01*
X0006037Y0045722D02*
X0005837D01*
X0006187Y0045572D02*
X0006037Y0045722D01*
X0006187Y0045372D02*
Y0045572D01*
X0006037Y0045222D02*
X0006187Y0045372D01*
X0005837Y0045222D02*
X0006037D01*
X0005687Y0045372D02*
X0005837Y0045222D01*
X0006687Y0045572D02*
Y0045372D01*
X0006837Y0045722D02*
X0006687Y0045572D01*
X0007037Y0045722D02*
X0006837D01*
X0007187Y0045572D02*
X0007037Y0045722D01*
X0007187Y0045372D02*
Y0045572D01*
X0007037Y0045222D02*
X0007187Y0045372D01*
X0006837Y0045222D02*
X0007037D01*
X0006687Y0045372D02*
X0006837Y0045222D01*
X0007687Y0045572D02*
Y0045372D01*
X0007837Y0045722D02*
X0007687Y0045572D01*
X0008037Y0045722D02*
X0007837D01*
X0008187Y0045572D02*
X0008037Y0045722D01*
X0008187Y0045372D02*
Y0045572D01*
X0008037Y0045222D02*
X0008187Y0045372D01*
X0007837Y0045222D02*
X0008037D01*
X0007687Y0045372D02*
X0007837Y0045222D01*
X0008687Y0045572D02*
Y0045372D01*
X0008837Y0045722D02*
X0008687Y0045572D01*
X0009037Y0045722D02*
X0008837D01*
X0009187Y0045572D02*
X0009037Y0045722D01*
X0009187Y0045372D02*
Y0045572D01*
X0009037Y0045222D02*
X0009187Y0045372D01*
X0008837Y0045222D02*
X0009037D01*
X0008687Y0045372D02*
X0008837Y0045222D01*
X0009687Y0045572D02*
Y0045372D01*
X0009837Y0045722D02*
X0009687Y0045572D01*
X0010037Y0045722D02*
X0009837D01*
X0010187Y0045572D02*
X0010037Y0045722D01*
X0010187Y0045372D02*
Y0045572D01*
X0010037Y0045222D02*
X0010187Y0045372D01*
X0009837Y0045222D02*
X0010037D01*
X0009687Y0045372D02*
X0009837Y0045222D01*
X0010687Y0045572D02*
Y0045372D01*
X0010837Y0045722D02*
X0010687Y0045572D01*
X0011037Y0045722D02*
X0010837D01*
X0011187Y0045572D02*
X0011037Y0045722D01*
X0011187Y0045372D02*
Y0045572D01*
X0011037Y0045222D02*
X0011187Y0045372D01*
X0010837Y0045222D02*
X0011037D01*
X0010687Y0045372D02*
X0010837Y0045222D01*
X0011687Y0045572D02*
Y0045372D01*
X0011837Y0045722D02*
X0011687Y0045572D01*
X0012037Y0045722D02*
X0011837D01*
X0012187Y0045572D02*
X0012037Y0045722D01*
X0012187Y0045372D02*
Y0045572D01*
X0012037Y0045222D02*
X0012187Y0045372D01*
X0011837Y0045222D02*
X0012037D01*
X0011687Y0045372D02*
X0011837Y0045222D01*
X0012687Y0045572D02*
Y0045372D01*
X0012837Y0045722D02*
X0012687Y0045572D01*
X0013037Y0045722D02*
X0012837D01*
X0013187Y0045572D02*
X0013037Y0045722D01*
X0013187Y0045372D02*
Y0045572D01*
X0013037Y0045222D02*
X0013187Y0045372D01*
X0012837Y0045222D02*
X0013037D01*
X0012687Y0045372D02*
X0012837Y0045222D01*
X0013687Y0045572D02*
Y0045372D01*
X0013837Y0045722D02*
X0013687Y0045572D01*
X0014037Y0045722D02*
X0013837D01*
X0014187Y0045572D02*
X0014037Y0045722D01*
X0014187Y0045372D02*
Y0045572D01*
X0014037Y0045222D02*
X0014187Y0045372D01*
X0013837Y0045222D02*
X0014037D01*
X0013687Y0045372D02*
X0013837Y0045222D01*
X0014687Y0045572D02*
Y0045372D01*
X0014837Y0045722D02*
X0014687Y0045572D01*
X0015037Y0045722D02*
X0014837D01*
X0015187Y0045572D02*
X0015037Y0045722D01*
X0015187Y0045372D02*
Y0045572D01*
X0015037Y0045222D02*
X0015187Y0045372D01*
X0014837Y0045222D02*
X0015037D01*
X0014687Y0045372D02*
X0014837Y0045222D01*
X0015687Y0045572D02*
Y0045372D01*
X0015837Y0045722D02*
X0015687Y0045572D01*
X0016037Y0045722D02*
X0015837D01*
X0016187Y0045572D02*
X0016037Y0045722D01*
X0016187Y0045372D02*
Y0045572D01*
X0016037Y0045222D02*
X0016187Y0045372D01*
X0015837Y0045222D02*
X0016037D01*
X0015687Y0045372D02*
X0015837Y0045222D01*
X0016687Y0045572D02*
Y0045372D01*
X0016837Y0045722D02*
X0016687Y0045572D01*
X0017037Y0045722D02*
X0016837D01*
X0017187Y0045572D02*
X0017037Y0045722D01*
X0017187Y0045372D02*
Y0045572D01*
X0017037Y0045222D02*
X0017187Y0045372D01*
X0016837Y0045222D02*
X0017037D01*
X0016687Y0045372D02*
X0016837Y0045222D01*
X0017687Y0045572D02*
Y0045372D01*
X0017837Y0045722D02*
X0017687Y0045572D01*
X0018037Y0045722D02*
X0017837D01*
X0018187Y0045572D02*
X0018037Y0045722D01*
X0018187Y0045372D02*
Y0045572D01*
X0018037Y0045222D02*
X0018187Y0045372D01*
X0017837Y0045222D02*
X0018037D01*
X0017687Y0045372D02*
X0017837Y0045222D01*
X0018687Y0045572D02*
Y0045372D01*
X0018837Y0045722D02*
X0018687Y0045572D01*
X0019037Y0045722D02*
X0018837D01*
X0019187Y0045572D02*
X0019037Y0045722D01*
X0019187Y0045372D02*
Y0045572D01*
X0019037Y0045222D02*
X0019187Y0045372D01*
X0018837Y0045222D02*
X0019037D01*
X0018687Y0045372D02*
X0018837Y0045222D01*
X0002250Y0005600D02*
Y0005400D01*
X0002400Y0005750D02*
X0002250Y0005600D01*
X0002600Y0005750D02*
X0002400D01*
X0002750Y0005600D02*
X0002600Y0005750D01*
X0002750Y0005400D02*
Y0005600D01*
X0002600Y0005250D02*
X0002750Y0005400D01*
X0002400Y0005250D02*
X0002600D01*
X0002250Y0005400D02*
X0002400Y0005250D01*
X0002450Y0005600D02*
Y0005650D01*
X0002400Y0005600D02*
X0002450D01*
X0002400Y0005650D02*
Y0005600D01*
X0002450Y0005650D02*
X0002400D01*
X0002550D02*
Y0005600D01*
X0002600Y0005650D02*
X0002550D01*
X0002600Y0005600D02*
Y0005650D01*
X0002550Y0005600D02*
X0002600D01*
X0002450Y0005350D02*
X0002350Y0005450D01*
X0002550Y0005350D02*
X0002450D01*
X0002650Y0005450D02*
X0002550Y0005350D01*
X0003431Y0003632D02*
Y0003432D01*
X0003581Y0003782D02*
X0003431Y0003632D01*
X0003781Y0003782D02*
X0003581D01*
X0003931Y0003632D02*
X0003781Y0003782D01*
X0003931Y0003432D02*
Y0003632D01*
X0003781Y0003282D02*
X0003931Y0003432D01*
X0003581Y0003282D02*
X0003781D01*
X0003431Y0003432D02*
X0003581Y0003282D01*
X0003631Y0003632D02*
Y0003682D01*
X0003581Y0003632D02*
X0003631D01*
X0003581Y0003682D02*
Y0003632D01*
X0003631Y0003682D02*
X0003581D01*
X0003731D02*
Y0003632D01*
X0003781Y0003682D02*
X0003731D01*
X0003781Y0003632D02*
Y0003682D01*
X0003731Y0003632D02*
X0003781D01*
X0003631Y0003382D02*
X0003531Y0003482D01*
X0003731Y0003382D02*
X0003631D01*
X0003831Y0003482D02*
X0003731Y0003382D01*
X0004612Y0005600D02*
Y0005400D01*
X0004762Y0005750D02*
X0004612Y0005600D01*
X0004962Y0005750D02*
X0004762D01*
X0005112Y0005600D02*
X0004962Y0005750D01*
X0005112Y0005400D02*
Y0005600D01*
X0004962Y0005250D02*
X0005112Y0005400D01*
X0004762Y0005250D02*
X0004962D01*
X0004612Y0005400D02*
X0004762Y0005250D01*
X0004812Y0005600D02*
Y0005650D01*
X0004762Y0005600D02*
X0004812D01*
X0004762Y0005650D02*
Y0005600D01*
X0004812Y0005650D02*
X0004762D01*
X0004912D02*
Y0005600D01*
X0004962Y0005650D02*
X0004912D01*
X0004962Y0005600D02*
Y0005650D01*
X0004912Y0005600D02*
X0004962D01*
X0004812Y0005350D02*
X0004712Y0005450D01*
X0004912Y0005350D02*
X0004812D01*
X0005012Y0005450D02*
X0004912Y0005350D01*
X0031250Y0009750D02*
Y0009500D01*
X0031500Y0009750D02*
X0031250D01*
X0031500Y0009250D02*
Y0009750D01*
X0031750Y0009250D02*
X0031500D01*
X0031750Y0009500D02*
Y0009250D01*
X0031250Y0009500D02*
X0031750D01*
X0031250Y0008750D02*
Y0008500D01*
X0031500Y0008750D02*
X0031250D01*
X0031500Y0008250D02*
Y0008750D01*
X0031750Y0008250D02*
X0031500D01*
X0031750Y0008500D02*
Y0008250D01*
X0031250Y0008500D02*
X0031750D01*
X0031250Y0007750D02*
Y0007500D01*
X0031500Y0007750D02*
X0031250D01*
X0031500Y0007250D02*
Y0007750D01*
X0031750Y0007250D02*
X0031500D01*
X0031750Y0007500D02*
Y0007250D01*
X0031250Y0007500D02*
X0031750D01*
X0031250Y0006750D02*
Y0006500D01*
X0031500Y0006750D02*
X0031250D01*
X0031500Y0006250D02*
Y0006750D01*
X0031750Y0006250D02*
X0031500D01*
X0031750Y0006500D02*
Y0006250D01*
X0031250Y0006500D02*
X0031750D01*
X0001250Y0024750D02*
Y0024500D01*
X0001500Y0024750D02*
X0001250D01*
X0001500Y0024250D02*
Y0024750D01*
X0001750Y0024250D02*
X0001500D01*
X0001750Y0024500D02*
Y0024250D01*
X0001250Y0024500D02*
X0001750D01*
X0001250Y0023750D02*
Y0023500D01*
X0001500Y0023750D02*
X0001250D01*
X0001500Y0023250D02*
Y0023750D01*
X0001750Y0023250D02*
X0001500D01*
X0001750Y0023500D02*
Y0023250D01*
X0001250Y0023500D02*
X0001750D01*
X0001250Y0022750D02*
Y0022500D01*
X0001500Y0022750D02*
X0001250D01*
X0001500Y0022250D02*
Y0022750D01*
X0001750Y0022250D02*
X0001500D01*
X0001750Y0022500D02*
Y0022250D01*
X0001250Y0022500D02*
X0001750D01*
X0001250Y0021750D02*
Y0021500D01*
X0001500Y0021750D02*
X0001250D01*
X0001500Y0021250D02*
Y0021750D01*
X0001750Y0021250D02*
X0001500D01*
X0001750Y0021500D02*
Y0021250D01*
X0001250Y0021500D02*
X0001750D01*
X0001250Y0015250D02*
Y0015000D01*
X0001500Y0015250D02*
X0001250D01*
X0001500Y0014750D02*
Y0015250D01*
X0001750Y0014750D02*
X0001500D01*
X0001750Y0015000D02*
Y0014750D01*
X0001250Y0015000D02*
X0001750D01*
X0001250Y0014250D02*
Y0014000D01*
X0001500Y0014250D02*
X0001250D01*
X0001500Y0013750D02*
Y0014250D01*
X0001750Y0013750D02*
X0001500D01*
X0001750Y0014000D02*
Y0013750D01*
X0001250Y0014000D02*
X0001750D01*
X0001250Y0013250D02*
Y0013000D01*
X0001500Y0013250D02*
X0001250D01*
X0001500Y0012750D02*
Y0013250D01*
X0001750Y0012750D02*
X0001500D01*
X0001750Y0013000D02*
Y0012750D01*
X0001250Y0013000D02*
X0001750D01*
X0001250Y0012250D02*
Y0012000D01*
X0001500Y0012250D02*
X0001250D01*
X0001500Y0011750D02*
Y0012250D01*
X0001750Y0011750D02*
X0001500D01*
X0001750Y0012000D02*
Y0011750D01*
X0001250Y0012000D02*
X0001750D01*
X0001250Y0011250D02*
Y0011000D01*
X0001500Y0011250D02*
X0001250D01*
X0001500Y0010750D02*
Y0011250D01*
X0001750Y0010750D02*
X0001500D01*
X0001750Y0011000D02*
Y0010750D01*
X0001250Y0011000D02*
X0001750D01*
X0001250Y0010250D02*
Y0010000D01*
X0001500Y0010250D02*
X0001250D01*
X0001500Y0009750D02*
Y0010250D01*
X0001750Y0009750D02*
X0001500D01*
X0001750Y0010000D02*
Y0009750D01*
X0001250Y0010000D02*
X0001750D01*
X0011750Y0008250D02*
Y0008000D01*
X0012000Y0008250D02*
X0011750D01*
X0012000Y0007750D02*
Y0008250D01*
X0012250Y0007750D02*
X0012000D01*
X0012250Y0008000D02*
Y0007750D01*
X0011750Y0008000D02*
X0012250D01*
X0006750Y0008250D02*
Y0008000D01*
X0007000Y0008250D02*
X0006750D01*
X0007000Y0007750D02*
Y0008250D01*
X0007250Y0007750D02*
X0007000D01*
X0007250Y0008000D02*
Y0007750D01*
X0006750Y0008000D02*
X0007250D01*
X0026750Y0013750D02*
Y0013500D01*
X0027000Y0013750D02*
X0026750D01*
X0027000Y0013250D02*
Y0013750D01*
X0027250Y0013250D02*
X0027000D01*
X0027250Y0013500D02*
Y0013250D01*
X0026750Y0013500D02*
X0027250D01*
X0025750Y0013750D02*
Y0013500D01*
X0026000Y0013750D02*
X0025750D01*
X0026000Y0013250D02*
Y0013750D01*
X0026250Y0013250D02*
X0026000D01*
X0026250Y0013500D02*
Y0013250D01*
X0025750Y0013500D02*
X0026250D01*
X0004500Y0017150D02*
X0004250Y0016900D01*
X0004750D02*
X0004500Y0017150D01*
X0004250Y0016900D02*
X0004750D01*
X0006500Y0017150D02*
X0006250Y0016900D01*
X0006750D02*
X0006500Y0017150D01*
X0006250Y0016900D02*
X0006750D01*
X0004500Y0020150D02*
X0004250Y0019900D01*
X0004750D02*
X0004500Y0020150D01*
X0004250Y0019900D02*
X0004750D01*
X0006500Y0020150D02*
X0006250Y0019900D01*
X0006750D02*
X0006500Y0020150D01*
X0006250Y0019900D02*
X0006750D01*
X0016250Y0008500D02*
X0015750D01*
X0016000Y0008750D02*
Y0008250D01*
X0015250Y0008500D02*
X0014750D01*
X0015000Y0008750D02*
Y0008250D01*
X0011250Y0004500D02*
X0010750D01*
X0011000Y0004750D02*
Y0004250D01*
X0011250Y0003500D02*
X0010750D01*
X0011000Y0003750D02*
Y0003250D01*
X0031750Y0001750D02*
X0031250Y0001250D01*
X0031750D02*
X0031250Y0001750D01*
X0001750D02*
X0001250Y0001250D01*
X0001750D02*
X0001250Y0001750D01*
M02*
