*
G04 Mass Parameters ***
*
G04 Image ***
*
%IND:\ORCAD TLS METER\MAIN BOARD.SMT*%
%ICAS*%
%MOIN*%
%IPPOS*%
%ASAXBY*%
G74*%FSLAN2X34Y34*%
*
G04 Aperture Definitions ***
*
%ADD10C,0.2000*%
%ADD11C,0.0520*%
%ADD12R,0.0520X0.0520*%
%ADD13C,0.1000*%
%ADD14C,0.0750*%
%ADD15O,0.1250X0.0600*%
%ADD16R,0.1250X0.0600*%
%ADD17O,0.1250X0.2000*%
%ADD18O,0.2000X0.1250*%
%ADD19C,0.0620*%
%ADD20R,0.0620X0.0620*%
%ADD21C,0.0550*%
%ADD22R,0.0550X0.0550*%
%ADD23R,0.0750X0.0750*%
%ADD24C,0.0580*%
%ADD25R,0.0580X0.0580*%
%ADD26O,0.0700X0.2000*%
%ADD27R,0.0700X0.2000*%
%ADD28C,0.0150*%
%ADD29C,0.0300*%
%ADD30C,0.2100*%
%ADD31C,0.1100*%
%ADD32C,0.0850*%
%ADD33O,0.1350X0.0700*%
%ADD34R,0.1350X0.0700*%
%ADD35O,0.1350X0.2100*%
%ADD36O,0.2100X0.1350*%
%ADD37R,0.0850X0.0850*%
%ADD38O,0.0800X0.2100*%
%ADD39R,0.0800X0.2100*%
%ADD40C,0.0670*%
%ADD41R,0.0670X0.0670*%
%ADD42C,0.0080*%
%ADD43C,0.0100*%
%ADD44C,0.0010*%
%ADD45C,0.0200*%
*
G04 Plot Data ***
*
G54D11*
X0015000Y0008500D03*
X0011000Y0003500D03*
G54D12*
X0016000Y0008500D03*
X0011000Y0004500D03*
G54D19*
X0004937Y0045472D03*
X0005937D03*
X0006937D03*
X0007937D03*
X0008937D03*
X0009937D03*
X0010937D03*
X0011937D03*
X0012937D03*
X0013937D03*
X0014937D03*
X0015937D03*
X0016937D03*
X0017937D03*
X0018937D03*
G54D20*
X0003937D03*
G54D21*
X0017500Y0017000D03*
Y0018000D03*
X0021500Y0013500D03*
Y0014500D03*
G54D22*
X0017500Y0016000D03*
X0021500Y0012500D03*
G54D24*
X0011500Y0026500D03*
Y0025500D03*
Y0024500D03*
Y0023500D03*
Y0022500D03*
Y0021500D03*
Y0020500D03*
Y0019500D03*
Y0018500D03*
Y0017500D03*
Y0016500D03*
Y0015500D03*
Y0014500D03*
X0014500D03*
Y0015500D03*
Y0016500D03*
Y0017500D03*
Y0018500D03*
Y0019500D03*
Y0020500D03*
Y0021500D03*
Y0022500D03*
Y0023500D03*
Y0024500D03*
Y0025500D03*
Y0026500D03*
Y0027500D03*
G54D25*
X0011500D03*
G54D30*
X0031500Y0001500D03*
X0001500D03*
G54D31*
X0021500Y0026000D03*
Y0022000D03*
X0026500Y0026000D03*
Y0022000D03*
X0031500Y0026000D03*
Y0022000D03*
X0023500Y0020000D03*
X0027500D03*
Y0016000D03*
X0023500D03*
X0021500Y0020000D03*
Y0016000D03*
X0017500Y0026500D03*
Y0025000D03*
Y0023500D03*
Y0019500D03*
X0027500Y0010000D03*
Y0006000D03*
X0023500Y0010000D03*
Y0006000D03*
X0019500Y0010000D03*
Y0006000D03*
X0009500Y0030000D03*
X0005500D03*
X0012000Y0008000D03*
X0007000D03*
X0004500Y0017000D03*
X0006500D03*
X0004500Y0020000D03*
X0006500D03*
G54D32*
X0021500Y0030500D03*
Y0027500D03*
X0019500Y0030500D03*
X0026500D03*
Y0027500D03*
X0024500Y0030500D03*
X0031500D03*
Y0027500D03*
X0029500Y0030500D03*
X0009000Y0027500D03*
Y0024500D03*
X0007000Y0027500D03*
X0030000Y0018000D03*
X0031000D03*
X0027500Y0004000D03*
Y0003000D03*
X0023500Y0004000D03*
Y0003000D03*
X0019500Y0004000D03*
Y0003000D03*
X0027000Y0013500D03*
X0026000D03*
G54D33*
X0008000Y0004000D03*
Y0003000D03*
X0003000Y0028500D03*
Y0027500D03*
X0031500Y0008500D03*
Y0007500D03*
Y0006500D03*
X0001500Y0023500D03*
Y0022500D03*
Y0021500D03*
Y0014000D03*
Y0013000D03*
Y0012000D03*
Y0011000D03*
Y0010000D03*
G54D34*
X0008000Y0005000D03*
X0003000Y0029500D03*
X0031500Y0009500D03*
X0001500Y0024500D03*
Y0015000D03*
G54D35*
X0002500Y0005500D03*
X0004862D03*
G54D36*
X0003681Y0003532D03*
G54D37*
X0019500Y0027500D03*
X0024500D03*
X0029500D03*
X0007000Y0024500D03*
G54D38*
X0015000Y0003500D03*
X0016000D03*
G54D39*
X0014000D03*
G54D40*
X0009000Y0017500D03*
G54D41*
Y0019500D03*
M02*
