*
G04 Mass Parameters ***
*
G04 Image ***
*
%IND:\ORCAD TLS METER\MAIN BOARD.BOT*%
%ICAS*%
%MOIN*%
%IPPOS*%
%ASAXBY*%
G74*%FSLAN2X34Y34*%
*
G04 Aperture Definitions ***
*
%ADD10C,0.2000*%
%ADD11C,0.0520*%
%ADD12R,0.0520X0.0520*%
%ADD13C,0.1000*%
%ADD14C,0.0750*%
%ADD15O,0.1250X0.0600*%
%ADD16R,0.1250X0.0600*%
%ADD17O,0.1250X0.2000*%
%ADD18O,0.2000X0.1250*%
%ADD19C,0.0620*%
%ADD20R,0.0620X0.0620*%
%ADD21C,0.0550*%
%ADD22R,0.0550X0.0550*%
%ADD23R,0.0750X0.0750*%
%ADD24C,0.0580*%
%ADD25R,0.0580X0.0580*%
%ADD26O,0.0700X0.2000*%
%ADD27R,0.0700X0.2000*%
%ADD28C,0.0150*%
%ADD29C,0.0300*%
%ADD30C,0.2100*%
%ADD31C,0.1100*%
%ADD32C,0.0850*%
%ADD33O,0.1350X0.0700*%
%ADD34R,0.1350X0.0700*%
%ADD35O,0.1350X0.2100*%
%ADD36O,0.2100X0.1350*%
%ADD37R,0.0850X0.0850*%
%ADD38O,0.0800X0.2100*%
%ADD39R,0.0800X0.2100*%
%ADD40C,0.0670*%
%ADD41R,0.0670X0.0670*%
%ADD42C,0.0080*%
%ADD43C,0.0100*%
%ADD44C,0.0010*%
%ADD45C,0.0200*%
*
G04 Plot Data ***
*
G54D28*
G01X0015937Y0045472D02*
Y0044437D01*
X0013000Y0041500D01*
Y0017000D01*
X0012500Y0016500D01*
X0011500D01*
X0021500Y0014500D02*
Y0016000D01*
Y0022000D02*
X0026500D01*
X0031500D02*
X0026500D01*
X0004500Y0017000D02*
Y0020000D01*
X0015000Y0008500D02*
Y0003500D01*
X0007000Y0027500D02*
X0003000D01*
X0017500Y0019500D02*
Y0021000D01*
X0017000Y0021500D01*
X0014500D01*
X0007937Y0045472D02*
X0008000Y0045500D01*
Y0028000D01*
X0007500Y0027500D01*
X0007000D01*
X0031500Y0022000D02*
Y0020500D01*
X0031000Y0020000D01*
Y0018000D01*
X0018937Y0045472D02*
Y0045972D01*
X0018437Y0046472D01*
X0008437D01*
X0007937Y0045972D01*
Y0045472D01*
X0003937D02*
Y0045972D01*
X0004437Y0046472D01*
X0007437D01*
X0007937Y0045972D01*
Y0045472D01*
X0004500Y0017000D02*
X0001000D01*
X0000500Y0016500D01*
Y0010500D01*
X0001000Y0010000D01*
X0001500D01*
X0011500Y0020500D02*
X0011000D01*
X0010000Y0021500D01*
X0005000D01*
X0004500Y0021000D01*
Y0020000D01*
X0019500Y0003000D02*
X0018500D01*
X0017000Y0001500D01*
X0015500D01*
X0015000Y0002000D01*
Y0003500D01*
Y0002000D01*
X0014500Y0001500D01*
X0011500D01*
X0011000Y0002000D01*
Y0003500D01*
X0019500Y0003000D02*
X0023500D01*
X0027500D02*
X0023500D01*
X0001500Y0021500D02*
X0004000D01*
X0004500Y0021000D01*
Y0020000D01*
X0001500Y0021500D02*
X0001000D01*
X0000500Y0022000D01*
Y0027000D01*
X0001000Y0027500D01*
X0003000D01*
Y0028500D02*
X0006000D01*
X0006500Y0029000D01*
Y0031000D01*
X0006000Y0031500D01*
Y0045500D01*
X0005937Y0045472D01*
X0016937D02*
X0017000Y0045500D01*
Y0044500D01*
X0013500Y0041000D01*
Y0016500D01*
X0012500Y0015500D01*
X0011500D01*
Y0017500D02*
X0012000D01*
X0012500Y0018000D01*
Y0042000D01*
X0015000Y0044500D01*
Y0045500D01*
X0014937Y0045472D01*
X0011500Y0018500D02*
X0010000D01*
X0009000Y0017500D01*
X0006500Y0017000D02*
X0008500D01*
X0009000Y0017500D01*
Y0019500D02*
X0011500D01*
X0009000D02*
X0008000D01*
X0007500Y0020000D01*
X0006500D01*
X0011500Y0025500D02*
X0011000D01*
X0010500Y0025000D01*
Y0023000D01*
X0010000Y0022500D01*
X0001500D01*
X0011500Y0026500D02*
X0011000D01*
X0010000Y0025500D01*
Y0024000D01*
X0009500Y0023500D01*
X0001500D01*
X0011500Y0027500D02*
X0010500D01*
X0009000Y0026000D01*
Y0024500D01*
X0011500Y0027500D02*
X0010500D01*
X0009500Y0028500D01*
Y0030000D01*
X0023500Y0010000D02*
X0025000Y0008500D01*
X0031500D01*
X0023500Y0010000D02*
X0022500Y0011000D01*
X0015500D01*
X0014500Y0012000D01*
Y0014500D01*
X0031500Y0009500D02*
X0028000D01*
X0027500Y0010000D01*
X0014500Y0015500D02*
X0015000D01*
X0015500Y0015000D01*
Y0012000D01*
X0016000Y0011500D01*
X0026000D01*
X0027500Y0010000D01*
X0021500Y0016000D02*
X0023500D01*
X0024500D01*
X0025000Y0016500D01*
Y0020500D01*
X0024500Y0021000D01*
X0018500D01*
X0016500Y0023000D01*
Y0024000D01*
X0016000Y0024500D01*
X0014500D01*
X0019500Y0010000D02*
X0022000Y0007500D01*
X0031500D01*
X0011500Y0014500D02*
Y0011000D01*
X0012500Y0010000D01*
X0019500D01*
Y0004000D02*
Y0006000D01*
X0027500D02*
Y0004000D01*
X0017500Y0017000D02*
X0018000D01*
X0018500Y0017500D01*
Y0020500D01*
X0016500Y0022500D01*
X0014500D01*
X0017500Y0025000D02*
Y0023500D01*
X0026000Y0013500D02*
Y0015500D01*
X0026500Y0016000D01*
X0027500D01*
X0021500Y0013500D02*
X0026000D01*
X0030000Y0018000D02*
X0029500D01*
X0029000Y0018500D01*
Y0019500D01*
X0028500Y0020000D01*
X0027500D01*
X0027000Y0013500D02*
X0028500D01*
X0029000Y0014000D01*
Y0017500D01*
X0029500Y0018000D01*
X0030000D01*
X0021500Y0027500D02*
Y0028000D01*
X0021000Y0028500D01*
X0017000D01*
X0016500Y0028000D01*
Y0026000D01*
X0016000Y0025500D01*
X0014500D01*
X0021500Y0026000D02*
Y0027500D01*
X0026500D02*
Y0028500D01*
X0026000Y0029000D01*
X0016500D01*
X0016000Y0028500D01*
Y0027000D01*
X0015500Y0026500D01*
X0014500D01*
X0026500Y0026000D02*
Y0027500D01*
X0031500D02*
Y0029000D01*
X0031000Y0029500D01*
X0016000D01*
X0015500Y0029000D01*
Y0028000D01*
X0015000Y0027500D01*
X0014500D01*
X0031500Y0026000D02*
Y0027500D01*
X0023500Y0006000D02*
Y0004000D01*
X0017500Y0018000D02*
Y0019500D01*
X0031500Y0006500D02*
X0029000D01*
X0028500Y0006000D01*
Y0003500D01*
X0028000Y0003000D01*
X0027500D01*
X0014500Y0019500D02*
X0016000D01*
X0016500Y0019000D01*
Y0016500D01*
X0017000Y0016000D01*
X0017500D01*
X0016000Y0003500D02*
Y0008500D01*
X0023500Y0020000D02*
X0021500D01*
X0014500Y0020500D02*
Y0019500D01*
X0024500Y0030500D02*
Y0031000D01*
X0024000Y0031500D01*
X0020000D01*
X0019500Y0031000D01*
Y0030500D01*
X0003000Y0029500D02*
X0004000D01*
X0004500Y0030000D01*
X0005500D01*
X0019500Y0030500D02*
X0019488Y0030512D01*
X0018504D01*
X0017937Y0031079D01*
Y0045472D01*
X0029500Y0030500D02*
Y0031000D01*
X0029000Y0031500D01*
X0025000D01*
X0024500Y0031000D01*
Y0030500D01*
X0016000Y0008500D02*
Y0009000D01*
X0015500Y0009500D01*
X0012000D01*
X0010500Y0011000D01*
Y0014500D01*
X0010000Y0015000D01*
X0001500D01*
X0017500Y0016000D02*
X0018500D01*
X0019000Y0016500D01*
Y0019500D01*
X0019500Y0020000D01*
X0021500D01*
G54D29*
G01X0012000Y0008000D02*
Y0005000D01*
X0011500Y0004500D01*
X0011000D01*
X0014000Y0003500D02*
X0012500D01*
X0011500Y0004500D01*
X0011000D01*
X0008000Y0005000D02*
Y0006000D01*
X0007000Y0007000D01*
Y0008000D01*
X0008000Y0004000D02*
X0007000D01*
X0006500Y0004500D01*
Y0005000D01*
X0006000Y0005500D01*
X0004862D01*
G54D10*
X0031500Y0001500D03*
X0001500D03*
G54D11*
X0015000Y0008500D03*
X0011000Y0003500D03*
G54D12*
X0016000Y0008500D03*
X0011000Y0004500D03*
G54D13*
X0021500Y0026000D03*
Y0022000D03*
X0026500Y0026000D03*
Y0022000D03*
X0031500Y0026000D03*
Y0022000D03*
X0023500Y0020000D03*
X0027500D03*
Y0016000D03*
X0023500D03*
X0021500Y0020000D03*
Y0016000D03*
X0017500Y0026500D03*
Y0025000D03*
Y0023500D03*
Y0019500D03*
X0027500Y0010000D03*
Y0006000D03*
X0023500Y0010000D03*
Y0006000D03*
X0019500Y0010000D03*
Y0006000D03*
X0009500Y0030000D03*
X0005500D03*
X0012000Y0008000D03*
X0007000D03*
X0004500Y0017000D03*
X0006500D03*
X0004500Y0020000D03*
X0006500D03*
G54D14*
X0021500Y0030500D03*
Y0027500D03*
X0019500Y0030500D03*
X0026500D03*
Y0027500D03*
X0024500Y0030500D03*
X0031500D03*
Y0027500D03*
X0029500Y0030500D03*
X0009000Y0027500D03*
Y0024500D03*
X0007000Y0027500D03*
X0030000Y0018000D03*
X0031000D03*
X0027500Y0004000D03*
Y0003000D03*
X0023500Y0004000D03*
Y0003000D03*
X0019500Y0004000D03*
Y0003000D03*
X0027000Y0013500D03*
X0026000D03*
G54D15*
X0008000Y0004000D03*
Y0003000D03*
X0003000Y0028500D03*
Y0027500D03*
X0031500Y0008500D03*
Y0007500D03*
Y0006500D03*
X0001500Y0023500D03*
Y0022500D03*
Y0021500D03*
Y0014000D03*
Y0013000D03*
Y0012000D03*
Y0011000D03*
Y0010000D03*
G54D16*
X0008000Y0005000D03*
X0003000Y0029500D03*
X0031500Y0009500D03*
X0001500Y0024500D03*
Y0015000D03*
G54D17*
X0002500Y0005500D03*
X0004862D03*
G54D18*
X0003681Y0003532D03*
G54D19*
X0009000Y0019500D03*
Y0017500D03*
X0004937Y0045472D03*
X0005937D03*
X0006937D03*
X0007937D03*
X0008937D03*
X0009937D03*
X0010937D03*
X0011937D03*
X0012937D03*
X0013937D03*
X0014937D03*
X0015937D03*
X0016937D03*
X0017937D03*
X0018937D03*
G54D20*
X0003937D03*
G54D21*
X0017500Y0017000D03*
Y0018000D03*
X0021500Y0013500D03*
Y0014500D03*
G54D22*
X0017500Y0016000D03*
X0021500Y0012500D03*
G54D23*
X0019500Y0027500D03*
X0024500D03*
X0029500D03*
X0007000Y0024500D03*
G54D24*
X0011500Y0026500D03*
Y0025500D03*
Y0024500D03*
Y0023500D03*
Y0022500D03*
Y0021500D03*
Y0020500D03*
Y0019500D03*
Y0018500D03*
Y0017500D03*
Y0016500D03*
Y0015500D03*
Y0014500D03*
X0014500D03*
Y0015500D03*
Y0016500D03*
Y0017500D03*
Y0018500D03*
Y0019500D03*
Y0020500D03*
Y0021500D03*
Y0022500D03*
Y0023500D03*
Y0024500D03*
Y0025500D03*
Y0026500D03*
Y0027500D03*
G54D25*
X0011500D03*
G54D26*
X0015000Y0003500D03*
X0016000D03*
G54D27*
X0014000D03*
M02*
