*
G04 Mass Parameters ***
*
G04 Image ***
*
%IND:\ORCAD TLS METER\MAIN BOARD.SST*%
%ICAS*%
%MOIN*%
%IPPOS*%
%ASAXBY*%
G74*%FSLAN2X34Y34*%
*
G04 Aperture Definitions ***
*
%ADD10C,0.2000*%
%ADD11C,0.0520*%
%ADD12R,0.0520X0.0520*%
%ADD13C,0.1000*%
%ADD14C,0.0750*%
%ADD15O,0.1250X0.0600*%
%ADD16R,0.1250X0.0600*%
%ADD17O,0.1250X0.2000*%
%ADD18O,0.2000X0.1250*%
%ADD19C,0.0620*%
%ADD20R,0.0620X0.0620*%
%ADD21C,0.0550*%
%ADD22R,0.0550X0.0550*%
%ADD23R,0.0750X0.0750*%
%ADD24C,0.0580*%
%ADD25R,0.0580X0.0580*%
%ADD26O,0.0700X0.2000*%
%ADD27R,0.0700X0.2000*%
%ADD28C,0.0150*%
%ADD29C,0.0300*%
%ADD30C,0.2100*%
%ADD31C,0.1100*%
%ADD32C,0.0850*%
%ADD33O,0.1350X0.0700*%
%ADD34R,0.1350X0.0700*%
%ADD35O,0.1350X0.2100*%
%ADD36O,0.2100X0.1350*%
%ADD37R,0.0850X0.0850*%
%ADD38O,0.0800X0.2100*%
%ADD39R,0.0800X0.2100*%
%ADD40C,0.0670*%
%ADD41R,0.0670X0.0670*%
%ADD42C,0.0080*%
%ADD43C,0.0100*%
%ADD44C,0.0010*%
%ADD45C,0.0200*%
*
G04 Plot Data ***
*
G54D42*
G01X0019186Y0017274D02*
X0019074D01*
X0019130D02*
Y0017608D01*
X0019074Y0017552D01*
X0018720Y0017274D02*
Y0017608D01*
X0018831D02*
X0018609D01*
X0003604Y0030533D02*
X0003160D01*
X0003604Y0030977D01*
Y0031088D01*
X0003549Y0031199D01*
X0003216D01*
X0003160Y0031088D01*
X0002778Y0030866D02*
X0002944Y0030533D01*
X0002500Y0030866D02*
X0002833D01*
X0002944Y0030977D01*
Y0031088D01*
X0002833Y0031199D01*
X0002500D01*
Y0030533D01*
X0006641Y0018634D02*
X0006752Y0018523D01*
X0006974D01*
X0007085Y0018634D01*
Y0018745D01*
X0006863Y0018967D01*
X0007085Y0019189D01*
X0006641D01*
X0006425Y0018634D02*
X0006370Y0018523D01*
X0006037D01*
X0005981Y0018634D01*
Y0019078D01*
X0006037Y0019189D01*
X0006370D01*
X0006425Y0019078D01*
X0030950Y0029144D02*
X0031061Y0029033D01*
X0031283D01*
X0031394Y0029144D01*
Y0029255D01*
X0031172Y0029477D01*
X0031394Y0029699D01*
X0030950D01*
X0030734D02*
Y0029144D01*
X0030679Y0029033D01*
X0030512Y0029366D01*
Y0029477D02*
Y0029366D01*
X0030346Y0029033D01*
X0030290Y0029144D01*
Y0029699D01*
X0030074Y0029588D02*
X0030019Y0029699D01*
X0029686D01*
X0029630Y0029588D01*
Y0029477D01*
X0029686Y0029366D01*
X0030019D01*
X0030074Y0029255D01*
Y0029144D01*
X0030019Y0029033D01*
X0029686D01*
X0029630Y0029144D01*
X0018128Y0027573D02*
X0018294Y0027239D01*
X0017850Y0027573D02*
X0018183D01*
X0018294Y0027684D01*
Y0027795D01*
X0018183Y0027906D01*
X0017850D01*
Y0027239D01*
X0017246D02*
Y0027906D01*
X0017190Y0027239D02*
X0017523D01*
X0017634Y0027462D01*
Y0027684D01*
X0017523Y0027906D01*
X0017190D01*
X0016974Y0027239D02*
X0016586D01*
Y0027906D01*
X0019076Y0022037D02*
X0019409D01*
X0019465Y0021925D01*
Y0021814D01*
X0019409Y0021703D01*
X0019076D01*
X0019021Y0021814D01*
Y0021925D01*
X0019243Y0022370D01*
X0018638Y0022037D02*
X0018805Y0021703D01*
X0018361Y0022037D02*
X0018694D01*
X0018805Y0022148D01*
Y0022259D01*
X0018694Y0022370D01*
X0018361D01*
Y0021703D01*
X0007974Y0030473D02*
X0007752D01*
X0007863D02*
Y0031139D01*
X0007752Y0031028D01*
X0007259Y0030806D02*
X0007425Y0030473D01*
X0006981Y0030806D02*
X0007314D01*
X0007425Y0030917D01*
Y0031028D01*
X0007314Y0031139D01*
X0006981D01*
Y0030473D01*
X0028304Y0001144D02*
X0028416Y0001033D01*
X0028638D01*
X0028749Y0001144D01*
Y0001255D01*
X0028527Y0001477D01*
X0028749Y0001699D01*
X0028304D01*
X0027700Y0001033D02*
Y0001699D01*
X0027644Y0001033D02*
X0027978D01*
X0028089Y0001255D01*
Y0001477D01*
X0027978Y0001699D01*
X0027644D01*
X0027318Y0001366D02*
X0026984D01*
X0027429Y0001033D02*
X0026984D01*
Y0001699D01*
X0027429D01*
X0026769Y0001033D02*
X0026380D01*
Y0001699D01*
X0026006Y0020583D02*
X0025894Y0020694D01*
X0025839Y0020805D01*
Y0021027D01*
X0025894Y0021138D01*
X0026006Y0021249D01*
X0026117D01*
X0026228Y0021138D01*
X0026283Y0021027D01*
Y0020805D01*
X0026228Y0020694D01*
X0026117Y0020583D01*
X0026006D01*
X0025623D02*
X0025401D01*
X0025512D02*
Y0021249D01*
X0025401Y0021138D01*
X0024908Y0020916D02*
X0025074Y0020583D01*
X0024630Y0020916D02*
X0024963D01*
X0025074Y0021027D01*
Y0021138D01*
X0024963Y0021249D01*
X0024630D01*
Y0020583D01*
X0026471Y0011564D02*
X0026526Y0011453D01*
X0026859D01*
X0026915Y0011564D01*
Y0011787D01*
X0026804Y0011898D01*
X0026471D01*
Y0012120D01*
X0026915D01*
X0026255Y0011564D02*
X0026199Y0011453D01*
X0025866D01*
X0025811Y0011564D01*
Y0012009D01*
X0025866Y0012120D01*
X0026199D01*
X0026255Y0012009D01*
X0022909Y0018037D02*
X0022965Y0018148D01*
Y0018259D01*
X0022909Y0018370D01*
X0022576D01*
X0022521Y0018259D01*
Y0018148D01*
X0022576Y0018037D01*
X0022909D01*
X0022965Y0017925D01*
Y0017814D01*
X0022909Y0017703D01*
X0022576D01*
X0022521Y0017814D01*
Y0017925D01*
X0022576Y0018037D01*
X0022138D02*
X0022305Y0017703D01*
X0021861Y0018037D02*
X0022194D01*
X0022305Y0018148D01*
Y0018259D01*
X0022194Y0018370D01*
X0021861D01*
Y0017703D01*
X0007085Y0015745D02*
X0006641D01*
X0006863Y0016189D01*
X0006974D01*
Y0015523D01*
X0006425Y0015634D02*
X0006370Y0015523D01*
X0006037D01*
X0005981Y0015634D01*
Y0016078D01*
X0006037Y0016189D01*
X0006370D01*
X0006425Y0016078D01*
X0026030Y0016806D02*
X0025697D01*
X0025641Y0016917D01*
Y0017028D01*
X0025697Y0017139D01*
X0026030D01*
X0026085Y0017028D01*
Y0016917D01*
X0025863Y0016473D01*
X0025259Y0016806D02*
X0025425Y0016473D01*
X0024981Y0016806D02*
X0025314D01*
X0025425Y0016917D01*
Y0017028D01*
X0025314Y0017139D01*
X0024981D01*
Y0016473D01*
X0031503Y0015602D02*
X0031281D01*
X0031392D02*
Y0016269D01*
X0031281Y0016158D01*
X0030954Y0015713D02*
X0030898Y0015602D01*
X0030565D01*
X0030509Y0015713D01*
Y0016158D01*
X0030565Y0016269D01*
X0030898D01*
X0030954Y0016158D01*
X0030294Y0015602D02*
X0030072D01*
X0030183D02*
Y0016269D01*
X0030294D02*
X0030072D01*
X0029745Y0015602D02*
Y0016269D01*
X0029634Y0016158D01*
X0029523Y0015936D01*
X0029412Y0016158D01*
X0029301Y0016269D01*
Y0015602D01*
X0020950Y0029144D02*
X0021006Y0029033D01*
X0021339D01*
X0021394Y0029144D01*
Y0029366D01*
X0021283Y0029477D01*
X0020950D01*
Y0029699D01*
X0021394D01*
X0020734D02*
Y0029144D01*
X0020679Y0029033D01*
X0020512Y0029366D01*
Y0029477D02*
Y0029366D01*
X0020346Y0029033D01*
X0020290Y0029144D01*
Y0029699D01*
X0020074Y0029588D02*
X0020019Y0029699D01*
X0019686D01*
X0019630Y0029588D01*
Y0029477D01*
X0019686Y0029366D01*
X0020019D01*
X0020074Y0029255D01*
Y0029144D01*
X0020019Y0029033D01*
X0019686D01*
X0019630Y0029144D01*
X0026521Y0008314D02*
X0026576Y0008203D01*
X0026909D01*
X0026965Y0008314D01*
Y0008537D01*
X0026854Y0008648D01*
X0026521D01*
Y0008870D01*
X0026965D01*
X0026138Y0008537D02*
X0026305Y0008203D01*
X0025861Y0008537D02*
X0026194D01*
X0026305Y0008648D01*
Y0008759D01*
X0026194Y0008870D01*
X0025861D01*
Y0008203D01*
X0008974Y0009023D02*
X0008752D01*
X0008863D02*
Y0009689D01*
X0008752Y0009578D01*
X0008037Y0009023D02*
Y0009689D01*
X0007981Y0009023D02*
X0008314D01*
X0008425Y0009245D01*
Y0009467D01*
X0008314Y0009689D01*
X0007981D01*
X0017180Y0009220D02*
X0016958D01*
X0017180Y0009442D01*
Y0009498D01*
X0017153Y0009553D01*
X0016986D01*
X0016958Y0009498D01*
X0016770Y0009276D02*
X0016743Y0009220D01*
X0016576D01*
X0016548Y0009276D01*
Y0009498D01*
X0016576Y0009553D01*
X0016743D01*
X0016770Y0009498D01*
X0012523Y0004659D02*
X0012412D01*
X0012468D02*
Y0004993D01*
X0012412Y0004937D01*
X0012169Y0004715D02*
X0012141Y0004659D01*
X0011974D01*
X0011947Y0004715D01*
Y0004937D01*
X0011974Y0004993D01*
X0012141D01*
X0012169Y0004937D01*
X0008653Y0001033D02*
X0008431D01*
X0008542D02*
Y0001699D01*
X0008431Y0001588D01*
X0008104Y0001699D02*
Y0001144D01*
X0008049Y0001033D01*
X0007882Y0001366D01*
Y0001477D02*
Y0001366D01*
X0007716Y0001033D01*
X0007660Y0001144D01*
Y0001699D01*
X0007444Y0001588D02*
X0007389Y0001699D01*
X0007056D01*
X0007000Y0001588D01*
Y0001477D01*
X0007056Y0001366D01*
X0007389D01*
X0007444Y0001255D01*
Y0001144D01*
X0007389Y0001033D01*
X0007056D01*
X0007000Y0001144D01*
X0026394Y0029255D02*
X0025950D01*
X0026172Y0029699D01*
X0026283D01*
Y0029033D01*
X0025734Y0029699D02*
Y0029144D01*
X0025679Y0029033D01*
X0025512Y0029366D01*
Y0029477D02*
Y0029366D01*
X0025346Y0029033D01*
X0025290Y0029144D01*
Y0029699D01*
X0025074Y0029588D02*
X0025019Y0029699D01*
X0024686D01*
X0024630Y0029588D01*
Y0029477D01*
X0024686Y0029366D01*
X0025019D01*
X0025074Y0029255D01*
Y0029144D01*
X0025019Y0029033D01*
X0024686D01*
X0024630Y0029144D01*
X0014734Y0005908D02*
X0014290D01*
X0014734Y0006352D01*
Y0006463D01*
X0014679Y0006574D01*
X0014346D01*
X0014290Y0006463D01*
X0014074Y0006574D02*
Y0006019D01*
X0014019Y0005908D01*
X0013686D01*
X0013630Y0006019D01*
Y0006574D01*
X0016638Y0001269D02*
X0016694Y0001158D01*
X0017027D01*
X0017083Y0001269D01*
Y0001491D01*
X0016972Y0001602D01*
X0016638D01*
Y0001824D01*
X0017083D01*
X0016145Y0001158D02*
X0016034Y0001269D01*
X0015978Y0001380D01*
Y0001602D01*
X0016034Y0001713D01*
X0016145Y0001824D01*
X0016256D01*
X0016367Y0001713D01*
X0016423Y0001602D01*
Y0001380D01*
X0016367Y0001269D01*
X0016256Y0001158D01*
X0016145D01*
X0015707Y0001491D02*
X0015763Y0001602D01*
Y0001713D01*
X0015707Y0001824D01*
X0015374D01*
X0015318Y0001713D01*
Y0001602D01*
X0015374Y0001491D01*
X0015707D01*
X0015763Y0001380D01*
Y0001269D01*
X0015707Y0001158D01*
X0015374D01*
X0015318Y0001269D01*
Y0001380D01*
X0015374Y0001491D01*
X0014769Y0001158D02*
X0015103Y0001824D01*
X0014658D01*
X0014443Y0001158D02*
Y0001824D01*
X0014332Y0001713D01*
X0014221Y0001491D01*
X0014109Y0001713D01*
X0013998Y0001824D01*
Y0001158D01*
X0013783D02*
X0013394D01*
Y0001824D01*
X0018521Y0008314D02*
X0018632Y0008203D01*
X0018854D01*
X0018965Y0008314D01*
Y0008425D01*
X0018743Y0008648D01*
X0018965Y0008870D01*
X0018521D01*
X0018138Y0008537D02*
X0018305Y0008203D01*
X0017861Y0008537D02*
X0018194D01*
X0018305Y0008648D01*
Y0008759D01*
X0018194Y0008870D01*
X0017861D01*
Y0008203D01*
X0020638Y0001033D02*
X0020416D01*
X0020527D02*
Y0001699D01*
X0020416Y0001588D01*
X0019700Y0001033D02*
Y0001699D01*
X0019644Y0001033D02*
X0019978D01*
X0020089Y0001255D01*
Y0001477D01*
X0019978Y0001699D01*
X0019644D01*
X0019318Y0001366D02*
X0018984D01*
X0019429Y0001033D02*
X0018984D01*
Y0001699D01*
X0019429D01*
X0018769Y0001033D02*
X0018380D01*
Y0001699D01*
X0003786Y0007888D02*
X0003953Y0007555D01*
X0003508Y0007888D02*
X0003842D01*
X0003953Y0007999D01*
Y0008110D01*
X0003842Y0008221D01*
X0003508D01*
Y0007555D01*
X0003182Y0007888D02*
X0002848D01*
X0003293Y0007555D02*
X0002848D01*
Y0008221D01*
X0003293D01*
X0002633D02*
Y0007666D01*
X0002577Y0007555D01*
X0002411Y0007888D01*
Y0007999D02*
Y0007888D01*
X0002244Y0007555D01*
X0002188Y0007666D01*
Y0008221D01*
X0001584Y0007555D02*
X0001528Y0007666D01*
Y0008110D01*
X0001584Y0008221D01*
X0001917D01*
X0001973Y0008110D01*
Y0007666D01*
X0001917Y0007555D01*
X0001584D01*
X0000868Y0007888D02*
X0001202D01*
X0001313Y0007999D01*
Y0008110D01*
X0001202Y0008221D01*
X0000868D01*
Y0007555D01*
X0022965Y0008425D02*
X0022521D01*
X0022743Y0008870D01*
X0022854D01*
Y0008203D01*
X0022138Y0008537D02*
X0022305Y0008203D01*
X0021861Y0008537D02*
X0022194D01*
X0022305Y0008648D01*
Y0008759D01*
X0022194Y0008870D01*
X0021861D01*
Y0008203D01*
X0023186Y0013774D02*
X0023074D01*
X0023130D02*
Y0014108D01*
X0023074Y0014052D01*
X0022720Y0013885D02*
X0022831Y0013774D01*
X0022609Y0013830D02*
X0022637Y0013774D01*
X0022748D01*
X0022776Y0013830D01*
X0022831Y0013885D01*
Y0014052D01*
X0022803Y0014108D01*
X0022637D01*
X0022609Y0014052D01*
Y0013830D01*
X0003977Y0044518D02*
X0003866D01*
X0003921D02*
Y0044851D01*
X0003866Y0044795D01*
X0019138Y0044684D02*
X0019305D01*
X0019333Y0044629D01*
Y0044573D01*
X0019305Y0044518D01*
X0019138D01*
X0019110Y0044573D01*
Y0044629D01*
X0019222Y0044851D01*
X0018923Y0044518D02*
X0018812D01*
X0018867D02*
Y0044851D01*
X0018812Y0044795D01*
X0031577Y0031689D02*
X0031466D01*
X0031522D02*
Y0032023D01*
X0031466Y0031967D01*
X0031028Y0031689D02*
Y0032023D01*
X0031001Y0031689D02*
X0031167D01*
X0031223Y0031800D01*
Y0031912D01*
X0031167Y0032023D01*
X0031001D01*
X0030813Y0031745D02*
X0030785Y0031689D01*
X0030618D01*
X0030591Y0031745D01*
Y0031967D01*
X0030618Y0032023D01*
X0030785D01*
X0030813Y0031967D01*
X0030403Y0031689D02*
X0030208D01*
Y0032023D01*
X0030903Y0024203D02*
X0030681D01*
X0030792D02*
Y0024870D01*
X0030681Y0024759D01*
X0030354Y0024203D02*
X0030132D01*
X0030243D02*
Y0024870D01*
X0030132Y0024759D01*
X0029638Y0024537D02*
X0029805Y0024203D01*
X0029361Y0024537D02*
X0029694D01*
X0029805Y0024648D01*
Y0024759D01*
X0029694Y0024870D01*
X0029361D01*
Y0024203D01*
X0008894Y0026033D02*
X0008450D01*
X0008894Y0026477D01*
Y0026588D01*
X0008839Y0026699D01*
X0008506D01*
X0008450Y0026588D01*
X0008234Y0026699D02*
Y0026144D01*
X0008179Y0026033D01*
X0008012Y0026366D01*
Y0026477D02*
Y0026366D01*
X0007846Y0026033D01*
X0007790Y0026144D01*
Y0026699D01*
X0007574Y0026588D02*
X0007519Y0026699D01*
X0007186D01*
X0007130Y0026588D01*
Y0026477D01*
X0007186Y0026366D01*
X0007519D01*
X0007574Y0026255D01*
Y0026144D01*
X0007519Y0026033D01*
X0007186D01*
X0007130Y0026144D01*
X0013373Y0028553D02*
X0013262D01*
X0013318D02*
Y0028887D01*
X0013262Y0028831D01*
X0013019Y0028887D02*
Y0028609D01*
X0012991Y0028553D01*
X0012824D01*
X0012797Y0028609D01*
Y0028887D01*
X0026014Y0024203D02*
X0025569D01*
X0026014Y0024648D01*
Y0024759D01*
X0025958Y0024870D01*
X0025625D01*
X0025569Y0024759D01*
X0025354Y0024203D02*
X0025132D01*
X0025243D02*
Y0024870D01*
X0025132Y0024759D01*
X0024638Y0024537D02*
X0024805Y0024203D01*
X0024361Y0024537D02*
X0024694D01*
X0024805Y0024648D01*
Y0024759D01*
X0024694Y0024870D01*
X0024361D01*
Y0024203D01*
X0020569Y0024314D02*
X0020681Y0024203D01*
X0020903D01*
X0021014Y0024314D01*
Y0024425D01*
X0020792Y0024648D01*
X0021014Y0024870D01*
X0020569D01*
X0020354Y0024203D02*
X0020132D01*
X0020243D02*
Y0024870D01*
X0020132Y0024759D01*
X0019638Y0024537D02*
X0019805Y0024203D01*
X0019361Y0024537D02*
X0019694D01*
X0019805Y0024648D01*
Y0024759D01*
X0019694Y0024870D01*
X0019361D01*
Y0024203D01*
X0024749Y0001033D02*
X0024304D01*
X0024749Y0001477D01*
Y0001588D01*
X0024693Y0001699D01*
X0024360D01*
X0024304Y0001588D01*
X0023700Y0001033D02*
Y0001699D01*
X0023644Y0001033D02*
X0023978D01*
X0024089Y0001255D01*
Y0001477D01*
X0023978Y0001699D01*
X0023644D01*
X0023318Y0001366D02*
X0022984D01*
X0023429Y0001033D02*
X0022984D01*
Y0001699D01*
X0023429D01*
X0022769Y0001033D02*
X0022380D01*
Y0001699D01*
X0021901Y0014469D02*
X0022242Y0014242D01*
X0022250Y0014250D02*
Y0012766D01*
X0022242Y0012758D01*
X0021901Y0012531D01*
X0017850Y0020650D02*
X0017150D01*
Y0022350D01*
X0017850D01*
Y0020650D01*
X0006650Y0029650D02*
Y0030350D01*
X0008350D01*
Y0029650D01*
X0006650D01*
X0026350Y0020350D02*
Y0019650D01*
X0024650D01*
Y0020350D01*
X0026350D01*
X0027500Y0012500D02*
X0027800Y0013100D01*
Y0013900D01*
X0027500Y0014500D01*
X0026900Y0014800D01*
X0026100D01*
X0025500Y0014500D01*
X0025200Y0013900D01*
Y0013100D01*
X0025500Y0012500D01*
X0026100Y0012200D01*
X0026900D01*
X0027500Y0012500D01*
X0021850Y0017150D02*
X0021150D01*
Y0018850D01*
X0021850D01*
Y0017150D01*
X0024650Y0015650D02*
Y0016350D01*
X0026350D01*
Y0015650D01*
X0024650D01*
X0029500Y0019000D02*
X0029200Y0018400D01*
Y0017600D01*
X0029500Y0017000D01*
X0030100Y0016700D01*
X0030900D01*
X0031500Y0017000D01*
X0031800Y0017600D01*
Y0018400D01*
X0031500Y0019000D01*
X0030900Y0019300D01*
X0030100D01*
X0029500Y0019000D01*
X0022000Y0031000D02*
X0019000D01*
Y0027000D01*
X0022000D01*
Y0031000D01*
X0027850Y0007150D02*
X0027150D01*
Y0008850D01*
X0027850D01*
Y0007150D01*
X0008000Y0007250D02*
Y0008750D01*
X0011000D01*
Y0007250D01*
X0008000D01*
X0010500Y0008740D02*
Y0007260D01*
X0007250Y0002125D02*
X0008750D01*
Y0005875D01*
X0007250D01*
Y0002125D01*
X0017125D02*
X0012900D01*
Y0005500D01*
X0017125D01*
X0017100Y0004850D01*
Y0002950D01*
X0017125Y0002125D01*
Y0004875D02*
X0012875D01*
X0019850Y0007150D02*
X0019150D01*
Y0008850D01*
X0019850D01*
Y0007150D01*
X0002303Y0003728D02*
X0000728D01*
Y0007271D01*
X0005059D01*
Y0006878D01*
Y0003728D02*
Y0004122D01*
X0023850Y0007150D02*
X0023150D01*
Y0008850D01*
X0023850D01*
Y0007150D01*
X0017099Y0016031D02*
X0016758Y0016258D01*
X0016531Y0016599D01*
X0016451Y0017000D01*
X0016531Y0017401D01*
X0016758Y0017742D01*
X0017099Y0017969D01*
X0019487Y0044972D02*
Y0045972D01*
X0003387D01*
Y0044972D01*
X0003937D01*
X0004937D01*
X0005937D01*
X0006937D01*
X0007937D01*
X0009937D01*
X0011937D01*
X0013937D01*
X0015937D01*
X0017937D01*
X0019487D01*
X0000788Y0032285D02*
Y0046457D01*
X0032281D01*
Y0032285D01*
X0000788D01*
X0031850Y0023150D02*
X0031150D01*
Y0024850D01*
X0031850D01*
Y0023150D01*
X0009500Y0028000D02*
X0006500D01*
Y0024000D01*
X0009500D01*
Y0028000D01*
X0014000D02*
X0012000D01*
Y0014000D01*
X0014000D01*
Y0028000D01*
X0013500D02*
Y0027750D01*
X0012500D01*
Y0028000D01*
X0026850Y0023150D02*
X0026150D01*
Y0024850D01*
X0026850D01*
Y0023150D01*
X0021850D02*
X0021150D01*
Y0024850D01*
X0021850D01*
Y0023150D01*
X0028500Y0004500D02*
X0027900Y0004800D01*
X0027100D01*
X0026500Y0004500D01*
X0026200Y0003900D01*
Y0003100D01*
X0026500Y0002500D01*
X0027100Y0002200D01*
X0027900D01*
X0028500Y0002500D01*
X0028800Y0003100D01*
Y0003900D01*
X0028500Y0004500D01*
X0020500D02*
X0019900Y0004800D01*
X0019100D01*
X0018500Y0004500D01*
X0018200Y0003900D01*
Y0003100D01*
X0018500Y0002500D01*
X0019100Y0002200D01*
X0019900D01*
X0020500Y0002500D01*
X0020800Y0003100D01*
Y0003900D01*
X0020500Y0004500D01*
X0024500D02*
X0023900Y0004800D01*
X0023100D01*
X0022500Y0004500D01*
X0022200Y0003900D01*
Y0003100D01*
X0022500Y0002500D01*
X0023100Y0002200D01*
X0023900D01*
X0024500Y0002500D01*
X0024800Y0003100D01*
Y0003900D01*
X0024500Y0004500D01*
X0017901Y0017969D02*
X0018242Y0017742D01*
X0002000Y0001500D02*
X0001000D01*
X0001500Y0001000D02*
Y0002000D01*
X0018250Y0017750D02*
Y0016266D01*
X0018242Y0016258D01*
X0017901Y0016031D01*
X0032000Y0031000D02*
X0029000D01*
Y0027000D01*
X0032000D01*
Y0031000D01*
Y0001500D02*
X0031000D01*
X0027000Y0031000D02*
X0024000D01*
Y0027000D01*
X0027000D01*
Y0031000D01*
X0021099Y0012531D02*
X0020758Y0012758D01*
X0020531Y0013099D01*
X0020451Y0013500D01*
X0020531Y0013901D01*
X0020758Y0014242D01*
X0021099Y0014469D01*
X0002250Y0026625D02*
X0003750D01*
Y0030375D01*
X0002250D01*
Y0026625D01*
X0031500Y0001000D02*
Y0002000D01*
G01X0016500Y0008500D02*
G03X0015500Y0009500I0001000J0000000D01*
G03X0014500Y0008500I0000000J0001000D01*
G03X0015500Y0007500I0001000J0000000D01*
G03X0016500Y0008500I0000000J0001000D01*
G01X0011000Y0005000D02*
G03X0010000Y0004000I0000000J0001000D01*
G03X0011000Y0003000I0001000J0000000D01*
G03X0012000Y0004000I0000000J0001000D01*
G03X0011000Y0005000I0001000J0000000D01*
G54D43*
G01X0028072Y0036722D02*
X0027850Y0036278D01*
X0027739Y0036056D02*
X0027850Y0036278D01*
X0027628Y0036722D01*
X0026983Y0036278D02*
Y0036944D01*
X0026928Y0036278D02*
X0027261D01*
X0027372Y0036389D01*
Y0036500D01*
X0027317Y0036611D01*
X0026983D02*
X0027317D01*
X0027372Y0036722D01*
Y0036833D01*
X0027261Y0036944D01*
X0026928D01*
X0025722Y0036278D02*
Y0036611D01*
X0025667Y0036722D01*
X0025333D01*
Y0036278D01*
X0024800Y0036056D02*
X0025022D01*
X0025078Y0036167D01*
Y0036722D01*
X0024744D01*
X0024689Y0036611D01*
Y0036389D01*
X0024744Y0036278D01*
X0025078D01*
X0024322Y0036944D02*
Y0036945D01*
X0024323D01*
Y0036944D01*
X0024322D01*
X0024433Y0036278D02*
X0024211D01*
X0024322D02*
Y0036722D01*
X0024211D01*
X0023844D02*
X0023511D01*
X0023456Y0036611D01*
X0023511Y0036500D01*
X0023844D01*
X0023900Y0036389D01*
X0023844Y0036278D01*
X0023511D01*
X0023144D02*
X0022811D01*
X0022756Y0036389D01*
Y0036611D01*
X0022811Y0036722D01*
X0023144D01*
X0023200Y0036611D01*
Y0036500D01*
X0022756D01*
X0022111Y0036278D02*
Y0036944D01*
X0022056Y0036278D02*
X0022389D01*
X0022500Y0036500D01*
Y0036722D01*
X0022389Y0036944D01*
X0022056D01*
X0030194Y0035278D02*
X0029861D01*
X0029917Y0035389D01*
X0030139Y0035611D01*
X0030194Y0035722D01*
X0029861D01*
X0029550D02*
X0029217D01*
X0029606Y0035278D02*
X0029383D01*
X0029328Y0035389D01*
Y0035944D01*
X0028849D02*
Y0035945D01*
X0028851D01*
Y0035944D01*
X0028849D01*
X0028961Y0035278D02*
X0028739D01*
X0028850D02*
Y0035722D01*
X0028739D01*
X0028428D02*
X0028206D01*
X0028150Y0035611D01*
X0028039D01*
Y0035722D02*
Y0035278D01*
X0027561D02*
Y0035611D01*
X0027783Y0035278D02*
Y0035611D01*
X0027728Y0035722D01*
X0027617D01*
X0027561Y0035611D01*
X0027506Y0035722D01*
X0027394D01*
X0027339Y0035611D01*
Y0035278D01*
X0026861D02*
Y0035611D01*
X0027083Y0035278D02*
Y0035611D01*
X0027028Y0035722D01*
X0026917D01*
X0026861Y0035611D01*
X0026806Y0035722D01*
X0026694D01*
X0026639Y0035611D01*
Y0035278D01*
X0025994D02*
X0025939Y0035389D01*
Y0035611D01*
X0025994Y0035722D01*
X0026328D01*
X0026383Y0035611D01*
Y0035389D01*
X0026328Y0035278D01*
X0025994D01*
X0025683D02*
X0025350Y0035611D01*
X0025683Y0035944D01*
X0025239D02*
Y0035278D01*
X0023811D02*
Y0035611D01*
X0024033Y0035278D02*
Y0035611D01*
X0023978Y0035722D01*
X0023867D01*
X0023811Y0035611D01*
X0023756Y0035722D01*
X0023644D01*
X0023589Y0035611D01*
Y0035278D01*
X0023000Y0035722D02*
X0023222D01*
X0023278Y0035611D01*
Y0035389D01*
X0023333Y0035278D01*
X0022944D01*
X0022889Y0035389D01*
X0022944Y0035500D01*
X0023278D01*
X0022522Y0035944D02*
Y0035945D01*
X0022523D01*
Y0035944D01*
X0022522D01*
X0022633Y0035278D02*
X0022411D01*
X0022522D02*
Y0035722D01*
X0022411D01*
X0022100Y0035278D02*
X0021878D01*
X0021989D02*
Y0035944D01*
X0021878D01*
X0021567Y0035278D02*
X0021344D01*
X0021456D02*
Y0035944D01*
X0021344D01*
X0020922D02*
Y0035945D01*
X0020923D01*
Y0035944D01*
X0020922D01*
X0021033Y0035278D02*
X0020811D01*
X0020922D02*
Y0035722D01*
X0020811D01*
X0020500Y0035944D02*
Y0035389D01*
X0020444Y0035278D01*
X0020278Y0035611D01*
Y0035722D02*
Y0035611D01*
X0020111Y0035278D01*
X0020056Y0035389D01*
Y0035944D01*
X0003408Y0023208D02*
X0003158Y0023708D01*
X0003408D02*
X0003158Y0023208D01*
X0002750Y0023458D02*
X0002875Y0023208D01*
X0002542Y0023458D02*
X0002792D01*
X0002875Y0023542D01*
Y0023625D01*
X0002792Y0023708D01*
X0002542D01*
Y0023208D01*
X0004025Y0024292D02*
X0003983Y0024208D01*
X0003733D01*
X0003692Y0024292D01*
Y0024625D01*
X0003733Y0024708D01*
X0003983D01*
X0004025Y0024625D01*
X0003450Y0024292D02*
X0003408Y0024208D01*
X0003158D01*
X0003117Y0024292D01*
Y0024625D01*
X0003158Y0024708D01*
X0003408D01*
X0003450Y0024625D01*
X0002875Y0024708D02*
Y0024542D01*
X0002708Y0024208D01*
X0002542Y0024542D01*
Y0024708D01*
X0004517Y0010708D02*
X0004350D01*
X0004433D02*
Y0011208D01*
X0004517D02*
X0004350D01*
X0004025Y0011125D02*
X0003983Y0011208D01*
X0003733D01*
X0003692Y0011125D01*
Y0011042D01*
X0003733Y0010958D01*
X0003983D01*
X0004025Y0010875D01*
Y0010792D01*
X0003983Y0010708D01*
X0003733D01*
X0003692Y0010792D01*
X0003158Y0010708D02*
X0003117Y0010792D01*
Y0011125D01*
X0003158Y0011208D01*
X0003408D01*
X0003450Y0011125D01*
Y0010792D01*
X0003408Y0010708D01*
X0003158D01*
X0002875D02*
Y0011208D01*
X0002792Y0011125D01*
X0002708Y0010958D01*
X0002625Y0011125D01*
X0002542Y0011208D01*
Y0010708D01*
X0004225Y0011708D02*
X0004183Y0011792D01*
Y0012125D01*
X0004225Y0012208D01*
X0004475D01*
X0004517Y0012125D01*
Y0011792D01*
X0004475Y0011708D01*
X0004225D01*
X0003942Y0012125D02*
X0003900Y0012208D01*
X0003650D01*
X0003608Y0012125D01*
Y0012042D01*
X0003650Y0011958D01*
X0003900D01*
X0003942Y0011875D01*
Y0011792D01*
X0003900Y0011708D01*
X0003650D01*
X0003608Y0011792D01*
X0003367Y0011708D02*
X0003200D01*
X0003283D02*
Y0012208D01*
X0003367D02*
X0003200D01*
X0002875Y0011708D02*
Y0012208D01*
X0002792Y0012125D01*
X0002708Y0011958D01*
X0002625Y0012125D01*
X0002542Y0012208D01*
Y0011708D01*
X0004025Y0014792D02*
X0003983Y0014708D01*
X0003733D01*
X0003692Y0014792D01*
Y0015125D01*
X0003733Y0015208D01*
X0003983D01*
X0004025Y0015125D01*
X0003450Y0014792D02*
X0003408Y0014708D01*
X0003158D01*
X0003117Y0014792D01*
Y0015125D01*
X0003158Y0015208D01*
X0003408D01*
X0003450Y0015125D01*
X0002875Y0015208D02*
Y0015042D01*
X0002708Y0014708D01*
X0002542Y0015042D01*
Y0015208D01*
X0004025Y0012708D02*
X0003775Y0012958D01*
X0004025Y0013208D01*
X0003692D02*
Y0012708D01*
X0003450Y0012792D02*
X0003408Y0012708D01*
X0003158D01*
X0003117Y0012792D01*
Y0013125D01*
X0003158Y0013208D01*
X0003408D01*
X0003450Y0013125D01*
X0002875D02*
X0002833Y0013208D01*
X0002583D01*
X0002542Y0013125D01*
Y0013042D01*
X0002583Y0012958D01*
X0002833D01*
X0002875Y0012875D01*
Y0012792D01*
X0002833Y0012708D01*
X0002583D01*
X0002542Y0012792D01*
X0003858Y0013708D02*
Y0014208D01*
X0004025D02*
X0003692D01*
X0003450Y0014125D02*
X0003408Y0014208D01*
X0003158D01*
X0003117Y0014125D01*
Y0014042D01*
X0003158Y0013958D01*
X0003408D01*
X0003450Y0013875D01*
Y0013792D01*
X0003408Y0013708D01*
X0003158D01*
X0003117Y0013792D01*
X0002750Y0013958D02*
X0002875Y0013708D01*
X0002542Y0013958D02*
X0002792D01*
X0002875Y0014042D01*
Y0014125D01*
X0002792Y0014208D01*
X0002542D01*
Y0013708D01*
X0030233Y0006208D02*
Y0006708D01*
X0030192Y0006208D02*
X0030442D01*
X0030525Y0006375D01*
Y0006542D01*
X0030442Y0006708D01*
X0030192D01*
X0029950D02*
Y0006208D01*
X0029867Y0006292D01*
X0029700Y0006625D01*
X0029617Y0006708D01*
Y0006208D01*
X0029208Y0006458D02*
X0029375D01*
Y0006292D01*
X0029333Y0006208D01*
X0029083D01*
X0029042Y0006292D01*
Y0006625D01*
X0029083Y0006708D01*
X0029333D01*
X0029375Y0006625D01*
X0030442Y0009292D02*
X0030400Y0009208D01*
X0030150D01*
X0030108Y0009292D01*
Y0009625D01*
X0030150Y0009708D01*
X0030400D01*
X0030442Y0009625D01*
X0029867Y0009208D02*
X0029700D01*
X0029783D02*
Y0009708D01*
X0029867D02*
X0029700D01*
X0029375Y0009208D02*
Y0009708D01*
X0029292Y0009625D01*
X0029208Y0009458D01*
X0029125Y0009625D01*
X0029042Y0009708D01*
Y0009208D01*
X0030358Y0008458D02*
X0030483Y0008208D01*
X0030150Y0008458D02*
X0030400D01*
X0030483Y0008542D01*
Y0008625D01*
X0030400Y0008708D01*
X0030150D01*
Y0008208D01*
X0029617D02*
Y0008708D01*
X0029575Y0008208D02*
X0029825D01*
X0029908Y0008375D01*
Y0008542D01*
X0029825Y0008708D01*
X0029575D01*
X0029333Y0008208D02*
X0029042D01*
Y0008708D01*
X0010372Y0021222D02*
X0010194D01*
X0010283D02*
Y0021756D01*
X0010194Y0021667D01*
X0009861Y0021222D02*
X0009550D01*
Y0021756D01*
X0009306Y0021400D02*
X0008950D01*
X0009306Y0021222D02*
Y0021489D01*
X0009172Y0021756D01*
X0009083D01*
X0008950Y0021489D01*
Y0021222D01*
X0008528D02*
Y0021756D01*
X0008706D02*
X0008350D01*
X0008106Y0021222D02*
X0007839Y0021756D01*
X0008106D02*
X0007839Y0021222D01*
X0003408Y0022208D02*
X0003158Y0022708D01*
X0003408D02*
X0003158Y0022208D01*
X0002708D02*
Y0022708D01*
X0002875D02*
X0002542D01*
X0030192Y0007458D02*
X0030442D01*
X0030525Y0007542D01*
Y0007625D01*
X0030442Y0007708D01*
X0030192D01*
Y0007208D01*
X0029950D02*
Y0007708D01*
X0029867Y0007625D01*
X0029783Y0007458D01*
X0029700Y0007625D01*
X0029617Y0007708D01*
Y0007208D01*
X0029208D02*
Y0007708D01*
X0029375D02*
X0029042D01*
X0003733Y0009708D02*
Y0010208D01*
X0003692Y0009708D02*
X0003942D01*
X0004025Y0009875D01*
Y0010042D01*
X0003942Y0010208D01*
X0003692D01*
X0003450D02*
Y0009708D01*
X0003367Y0009792D01*
X0003200Y0010125D01*
X0003117Y0010208D01*
Y0009708D01*
X0002708Y0009958D02*
X0002875D01*
Y0009792D01*
X0002833Y0009708D01*
X0002583D01*
X0002542Y0009792D01*
Y0010125D01*
X0002583Y0010208D01*
X0002833D01*
X0002875Y0010125D01*
X0003733Y0021208D02*
Y0021708D01*
X0003692Y0021208D02*
X0003942D01*
X0004025Y0021375D01*
Y0021542D01*
X0003942Y0021708D01*
X0003692D01*
X0003450D02*
Y0021208D01*
X0003367Y0021292D01*
X0003200Y0021625D01*
X0003117Y0021708D01*
Y0021208D01*
X0002708Y0021458D02*
X0002875D01*
Y0021292D01*
X0002833Y0021208D01*
X0002583D01*
X0002542Y0021292D01*
Y0021625D01*
X0002583Y0021708D01*
X0002833D01*
X0002875Y0021625D01*
X0032250Y0010000D02*
X0030750D01*
Y0006000D01*
X0032250D01*
Y0010000D01*
X0002250Y0015500D02*
X0000750D01*
Y0009500D01*
X0002250D01*
Y0015500D01*
Y0025000D02*
X0000750D01*
Y0021000D01*
X0002250D01*
Y0025000D01*
X0007250Y0016250D02*
Y0017750D01*
X0003750D01*
Y0016250D01*
X0007250D01*
Y0019250D02*
Y0020750D01*
X0003750D01*
Y0019250D01*
X0007250D01*
X0008000Y0020750D02*
Y0016250D01*
X0010000D01*
Y0020750D01*
X0008000D01*
G54D44*
G01X0031600Y0001100D02*
X0031700Y0001200D01*
Y0001400D01*
X0031600Y0001500D01*
X0031500D01*
X0031300Y0001300D01*
X0031100Y0001500D01*
Y0001100D01*
X0001700Y0001400D02*
Y0001200D01*
Y0001300D02*
X0001100D01*
X0001200Y0001200D01*
G54D45*
G01X0031000Y0041917D02*
X0030500D01*
X0031167Y0041417D02*
X0030500D01*
Y0042417D01*
X0031167D01*
X0030017Y0041417D02*
X0029433D01*
Y0042417D01*
X0028367Y0041417D02*
Y0042417D01*
X0028283Y0041417D02*
X0028783D01*
X0028950Y0041583D01*
Y0041750D01*
X0028867Y0041917D01*
X0028367D02*
X0028867D01*
X0028950Y0042083D01*
Y0042250D01*
X0028783Y0042417D01*
X0028283D01*
X0027800Y0041750D02*
X0027133D01*
X0027800Y0041417D02*
Y0041917D01*
X0027550Y0042417D01*
X0027383D01*
X0027133Y0041917D01*
Y0041417D01*
X0026650D02*
Y0042417D01*
X0026483Y0042250D01*
X0026317Y0041917D01*
X0026150Y0042250D01*
X0025983Y0042417D01*
Y0041417D01*
X0025500Y0041750D02*
X0024833D01*
X0025500Y0041417D02*
Y0041917D01*
X0025250Y0042417D01*
X0025083D01*
X0024833Y0041917D01*
Y0041417D01*
X0024100Y0041917D02*
X0024350Y0041417D01*
X0023683Y0041917D02*
X0024183D01*
X0024350Y0042083D01*
Y0042250D01*
X0024183Y0042417D01*
X0023683D01*
Y0041417D01*
X0022867Y0041917D02*
X0023200D01*
Y0041583D01*
X0023117Y0041417D01*
X0022617D01*
X0022533Y0041583D01*
Y0042250D01*
X0022617Y0042417D01*
X0023117D01*
X0023200Y0042250D01*
X0021467Y0041417D02*
X0021383Y0041583D01*
Y0042250D01*
X0021467Y0042417D01*
X0021967D01*
X0022050Y0042250D01*
Y0041583D01*
X0021967Y0041417D01*
X0021467D01*
X0020650Y0041917D02*
X0020900Y0041417D01*
X0020233Y0041917D02*
X0020733D01*
X0020900Y0042083D01*
Y0042250D01*
X0020733Y0042417D01*
X0020233D01*
Y0041417D01*
X0019083Y0041917D02*
X0019583D01*
X0019750Y0042083D01*
Y0042250D01*
X0019583Y0042417D01*
X0019083D01*
Y0041417D01*
X0029992Y0040417D02*
X0030242Y0039917D01*
X0029575Y0040417D02*
X0030075D01*
X0030242Y0040583D01*
Y0040750D01*
X0030075Y0040917D01*
X0029575D01*
Y0039917D01*
X0028925Y0040417D02*
X0028425D01*
X0029092Y0039917D02*
X0028425D01*
Y0040917D01*
X0029092D01*
X0027608Y0039917D02*
Y0040917D01*
X0027942D02*
X0027275D01*
X0026625Y0040417D02*
X0026125D01*
X0026792Y0039917D02*
X0026125D01*
Y0040917D01*
X0026792D01*
X0025642Y0039917D02*
Y0040917D01*
X0025475Y0040750D01*
X0025308Y0040417D01*
X0025142Y0040750D01*
X0024975Y0040917D01*
Y0039917D01*
X0022967Y0040750D02*
X0022883Y0040917D01*
X0022383D01*
X0022300Y0040750D01*
Y0040583D01*
X0022383Y0040417D01*
X0022883D01*
X0022967Y0040250D01*
Y0040083D01*
X0022883Y0039917D01*
X0022383D01*
X0022300Y0040083D01*
X0021817Y0039917D02*
X0021233D01*
Y0040917D01*
X0020417Y0039917D02*
Y0040917D01*
X0020750D02*
X0020083D01*
M02*
