%
T4C0.038F200S100
X009000Y017500
X009000Y019500
T10C0.150F200S100
X001500Y001500
X031500Y001500
T5C0.040F200S100
X001500Y010000
X001500Y011000
X001500Y012000
X001500Y013000
X001500Y014000
X001500Y015000
X001500Y021500
X001500Y022500
X001500Y023500
X001500Y024500
X005500Y030000
X007000Y008000
X009500Y030000
X012000Y008000
X017500Y019500
X017500Y023500
X019500Y003000
X019500Y004000
X019500Y006000
X019500Y010000
X021500Y016000
X021500Y020000
X021500Y022000
X021500Y026000
X023500Y003000
X023500Y004000
X023500Y006000
X023500Y010000
X026000Y013500
X023500Y016000
X023500Y020000
X026500Y022000
X026500Y026000
X027000Y013500
X027500Y003000
X027500Y004000
X027500Y006000
X027500Y010000
X027500Y016000
X030000Y018000
X027500Y020000
X031000Y018000
X031500Y006500
X031500Y007500
X031500Y008500
X031500Y009500
X031500Y022000
X031500Y026000
T2C0.034F200S100
X011500Y014500
X011500Y015500
X011500Y016500
X011500Y017500
X011500Y018500
X011500Y019500
X011500Y020500
X011500Y021500
X011500Y022500
X011500Y023500
X011500Y024500
X011500Y025500
X011500Y026500
X011500Y027500
X014500Y014500
X014500Y015500
X014500Y016500
X014500Y017500
X014500Y018500
X014500Y019500
X014500Y020500
X014500Y021500
X014500Y022500
X014500Y023500
X014500Y024500
X014500Y025500
X014500Y026500
X014500Y027500
T3C0.035F200S100
X003000Y027500
X003000Y028500
X003000Y029500
X007000Y024500
X007000Y027500
X008000Y003000
X008000Y004000
X008000Y005000
X009000Y024500
X009000Y027500
X017500Y025000
X017500Y026500
X019500Y027500
X019500Y030500
X021500Y027500
X021500Y030500
X024500Y027500
X024500Y030500
X026500Y027500
X026500Y030500
X029500Y027500
X029500Y030500
X031500Y027500
X031500Y030500
T6C0.042F200S100
X003937Y045472
X004937Y045472
X005937Y045472
X006937Y045472
X007937Y045472
X008937Y045472
X009937Y045472
X010937Y045472
X011937Y045472
X012937Y045472
X013937Y045472
X014937Y045472
X015937Y045472
X016937Y045472
X017937Y045472
X018937Y045472
T1C0.031F200S100
X011000Y003500
X011000Y004500
X015000Y008500
X016000Y008500
X017500Y016000
X017500Y017000
X017500Y018000
X021500Y012500
X021500Y013500
X021500Y014500
T9C0.065F200S100
X002500Y005500
X003681Y003532
X004862Y005500
T8C0.055F200S100
X014000Y003500
X015000Y003500
X016000Y003500
T7C0.045F200S100
X004500Y017000
X006500Y017000
X006500Y020000
X004500Y020000
M30
